<?xml version="1.0" encoding="UTF-8" standalone="no"?>
<svg
   width="560"
   height="120"
   version="1.1"
   id="svg6"
   sodipodi:docname="gatunos_texto_logo_extra1.svg"
   inkscape:version="1.1.1 (3bf5ae0d25, 2021-09-20)"
   inkscape:export-filename="/home/gerardo/Documents/curso_python_2022/lista_ejemplos/html_bootstrap_jquery_addons/01_unificacion_3modulos/assets/gatunos_texto_logo.png"
   inkscape:export-xdpi="96"
   inkscape:export-ydpi="96"
   xmlns:inkscape="http://www.inkscape.org/namespaces/inkscape"
   xmlns:sodipodi="http://sodipodi.sourceforge.net/DTD/sodipodi-0.dtd"
   xmlns="http://www.w3.org/2000/svg"
   xmlns:svg="http://www.w3.org/2000/svg">
  <defs
     id="defs10">
    <rect
       x="565.20884"
       y="482.29806"
       width="582.39766"
       height="132.45502"
       id="rect22082" />
  </defs>
  <sodipodi:namedview
     id="namedview8"
     pagecolor="#505050"
     bordercolor="#ffffff"
     borderopacity="1"
     inkscape:pageshadow="0"
     inkscape:pageopacity="0"
     inkscape:pagecheckerboard="1"
     showgrid="false"
     inkscape:zoom="0.38254353"
     inkscape:cx="356.82214"
     inkscape:cy="-2.6140816"
     inkscape:window-width="1366"
     inkscape:window-height="695"
     inkscape:window-x="0"
     inkscape:window-y="0"
     inkscape:window-maximized="1"
     inkscape:current-layer="g4" />
  <g
     transform="matrix(.3553 0 0 .3553 -160.1 -62.69)"
     id="g4">
    <path
       d="m -668.8356,-1096.8671 c -1.975,-1.734 -4.244,-4.416 -5.042,-5.959 l -1.451,-2.806 v -8.202 l 4.917,-4.916 1.798,-0.032 c 0.9889,-0.018 2.667,-0.6892 3.729,-1.493 l 1.931,-1.461 1.5,-10.53 0.145,-45.7 -2.074,-3.874 h -1.786 c -0.9823,0 -4.175,-0.7095 -7.095,-1.577 l -5.309,-1.577 -4.768,-4.768 v -3.096 l 11.52,-0.082 9.014,-4.424 0.2862,-35.05 0.286,-35.05 -2.378,-8.666 -4.204,-2.726 -17.53,-1.403 v -2.4 l 8.859,-8.986 25.35,-11.46 1.929,0.6122 c 1.061,0.3367 3.279,1.748 4.928,3.136 l 2.999,2.524 v 1.342 c 0,0.7379 0.7082,2.05 1.574,2.915 l 1.574,1.574 h 20.66 l 8.682,2.516 c 4.775,1.384 10.86,3.617 13.51,4.964 2.656,1.346 8.41,5.145 12.79,8.442 l 7.955,5.994 5.499,7.934 2.867,9.527 v 13.52 l -3.748,12.04 -7.41,13.25 -12.05,12.88 -6.675,4.919 c -3.671,2.705 -8.928,6.034 -11.68,7.397 -2.754,1.363 -10.19,4.194 -16.52,6.292 -6.335,2.097 -12.53,4.181 -13.77,4.631 l -2.253,0.8174 v 43.2 l 4.835,4.835 2.84,0.602 c 1.562,0.3311 3.598,1.01 4.523,1.508 l 1.683,0.9058 4.367,-0.088 c 2.402,-0.048 6.668,0.2288 9.48,0.6155 l 5.113,0.7032 6.364,-3.291 2.949,0.6477 c 1.622,0.3562 4.969,0.6477 7.438,0.6477 2.469,0 4.489,0.2108 4.489,0.4684 0,0.2576 -1.628,1.148 -3.617,1.979 -3.649,1.525 -11.5,6.45 -16.77,10.53 l -2.86,2.21 -13.03,3.614 -9.289,5.906 -7.511,2.122 c -4.131,1.167 -9.804,2.782 -12.61,3.589 l -5.096,1.467 h -8.266 l -3.591,-3.153 z m 44.23,-107.5 8.865,-4.454 16.15,-12.96 9.672,-11.68 5.727,-12.02 8.1e-4,-4.306 8e-4,-4.306 -1.466,-2.835 c -0.8064,-1.56 -2.864,-4.012 -4.573,-5.45 l -3.107,-2.614 -11.38,-3.419 -17.03,-0.053 -11.07,2.502 -6.459,3.928 v 60.02 l 1.752,1.021 c 0.964,0.5615 2.27,1.035 2.903,1.051 0.6325,0.016 5.139,-1.974 10.01,-4.424 z m 73.46,109 c -1.377,-0.8903 -3.734,-3.213 -5.238,-5.162 l -2.734,-3.543 -0.6162,-3.284 -0.616,-3.284 2.695,-5.679 8.851,-4.247 2.667,-3.647 v -55.46 l -5.258,-0.5874 c -2.892,-0.3231 -7.024,-0.9439 -9.182,-1.38 l -3.924,-0.7921 -0.3164,-0.9979 c -0.1731,-0.5488 0.0342,-1.551 0.4637,-2.227 l 0.7802,-1.229 7.742,-1.481 c 4.258,-0.8147 8.181,-1.753 8.718,-2.084 l 0.9761,-0.6032 v -81.1 l -2.923,-5.652 -8.303,-1.179 c -4.567,-0.6486 -9.768,-1.403 -11.56,-1.676 l -3.255,-0.4971 v -0.7815 c 0,-0.4298 1.014,-1.705 2.253,-2.834 2.452,-2.233 15.09,-10.32 16.13,-10.32 0.3528,0 4.656,-1.808 9.563,-4.017 l 8.921,-4.017 2.846,1.082 c 1.565,0.5952 3.636,1.797 4.601,2.67 l 1.754,1.588 v 5.464 l 2.253,0.6039 c 1.239,0.3322 6.769,0.61 12.29,0.6176 l 10.04,0.014 7.186,1.991 c 3.952,1.095 9.749,3.125 12.88,4.51 l 5.696,2.519 6.627,4.931 c 3.645,2.712 8.295,6.654 10.33,8.76 l 3.706,3.828 4.444,10.02 0.448,7.564 0.4482,7.564 -5.862,17.01 -3.856,5.809 c -2.121,3.195 -6.115,8.281 -8.876,11.3 l -5.02,5.493 -6.388,-1.198 -1.044,1.271 c -0.5744,0.6992 -1.2,2.394 -1.391,3.766 l -0.3464,2.494 -9.856,6.44 -24.86,9.103 -2.172,0.016 c -1.195,0.01 -2.848,0.4424 -3.674,0.9645 l -1.502,0.9492 v 42.98 l 2.388,2.542 2.387,2.542 10.4,2.159 9.938,-0.029 c 5.466,-0.016 12.56,-0.08 15.76,-0.1433 l 5.817,-0.1147 1.368,1.368 -1.995,1.17 c -1.097,0.6435 -4.862,2.415 -8.367,3.937 l -6.372,2.767 -2.969,2.498 c -1.633,1.374 -3.547,2.498 -4.253,2.498 h -1.284 l -4.398,3.863 c -2.419,2.125 -6.327,4.845 -8.686,6.046 l -4.289,2.183 -19.46,5.291 -10.02,0.6809 -2.504,-1.619 z m 40.84,-108 7.234,-3.467 14.52,-10.78 14.02,-14.86 2.806,-5.789 2.807,-5.789 0.5071,-4.713 0.5074,-4.713 -3.623,-6.959 -8.012,-5.573 -15.02,-3.178 -6.51,0.5808 c -3.58,0.3195 -9.214,1.271 -12.52,2.114 l -6.009,1.533 -4.594,5.186 0.5876,56.57 2.749,3.309 h 1.658 c 0.9119,0 4.913,-1.56 8.892,-3.467 z m 345.19998,77.65 c -2.754,-0.9817 -7.302,-2.948 -10.11,-4.369 l -5.098,-2.584 -3.159,-3.597 c -1.737,-1.979 -4.161,-5.5 -5.385,-7.826 l -2.227,-4.229 -0.064,-15.02 6.324,-13.35 15.54,-16.27 -2.814,-5.886 -2.813,-5.886 1.201,-6.008 -2.867,-2.379 3.109,-6.012 -4.445,-4.732 0.6352,-4.633 0.6351,-4.633 3.99,-9.019 8.518,-10.17 8.793,-5.576 10.85,-2.428 10.43,3.294 11.43,7.161 7.297,12.01 0.5124,3.821 0.5126,3.821 -4.422,14.01 -3.848,4.9 c -2.116,2.695 -5.502,7.378 -7.524,10.41 -2.022,3.03 -5.026,6.706 -6.675,8.17 l -2.998,2.662 0.8527,1.455 c 0.4689,0.8 4.956,5.811 9.972,11.14 l 9.119,9.681 2.392,-2.882 0.2013,-2.842 0.2012,-2.842 -7.501,-0.621 -5.018,-6.579 v -4.174 l 2.869,-2.869 8.33,-2.59 c 4.582,-1.424 10.58,-3.102 13.34,-3.727 l 5.008,-1.138 12.019998,-0.3952 c 6.61,-0.2174 14.38,-0.6631 17.28,-0.9905 l 5.258,-0.5953 -6e-4,1.324 -4e-4,1.324 -7.123,6.51 c -3.917,3.58 -8.536,7.917 -10.26,9.637 l -3.142,3.127 -4.885,0.7092 c -2.687,0.39 -5.504,0.9464 -6.259,1.236 l -1.374,0.5273 v 9.726 l -4.273998,11.42 2.877998,2.088 c 1.583,1.148 4.685,3.479 6.894,5.179 l 4.016,3.091 -0.1852,1.416 c -0.1026,0.7786 -0.8092,3.102 -1.571,5.164 l -1.385,3.748 -4.719,5.023 -6.160998,-0.01 -3.279,-1.999 c -1.804,-1.099 -3.884,-1.999 -4.622,-1.999 -0.738,0 -2.489,-0.9014 -3.889,-2.003 -1.401,-1.102 -3.151,-1.991 -3.891,-1.977 -0.74,0.014 -3.823,1.608 -6.852,3.542 l -5.508,3.517 -18.95,5.935 -10.09,-0.1465 -5.008,-1.785 z m 24.3,-24.24 4.403,-2.131 0.4904,-1.278 0.4903,-1.278 -20.67,-20.21 -2.418,-0.012 -2.797,3.687 c -1.538,2.028 -4.262,5.04 -6.052,6.694 l -3.255,3.008 v 2.708 l 4.256,4.343 c 2.341,2.389 5.158,4.837 6.26,5.441 l 2.003,1.099 12.89,0.061 4.403,-2.131 z m -5.358,-61.55 7.732,-6.597 3.862,-6.334 v -6.356 l -4.967,-5.903 -6.016,-2.492 -6.923,1.299 -2.716,3.221 c -1.494,1.771 -3.323,4.671 -4.066,6.444 l -1.351,3.223 v 7.758 l 1.418,4.712 c 1.409,4.681 3.169,7.624 4.56,7.624 0.3993,0 4.206,-2.969 8.458,-6.597 z m 177.599998,58.68 c -3.15,-0.4041 -8.921,-1.762 -12.83,-3.017 l -7.097,-2.282 -5.9470001,-3.612 c -3.271,-1.987 -8.252,-5.415 -11.07,-7.618 l -5.1209999,-4.006 -11.58,-13.63 -3.03,-5.704 c -1.666,-3.137 -3.951,-8.633 -5.077,-12.21 -1.126,-3.58 -3.003,-11.68 -4.172,-18.01 l -2.125,-11.5 0.4449,-4.528 c 0.6432,-6.542 3.474,-21.07 6.263,-32.15 2.777,-11.03 8.717,-28.53 11.69,-34.44 4.428,-8.806 15.5699999,-26.49 22.4099999,-35.57 3.967,-5.266 10.3000001,-12.74 14.0800001,-16.6 3.778,-3.863 10.02,-9.408 13.88,-12.32 l 7.007,-5.297 16.61,-8.23 21.46,-0.1348 9.514,3.839 c 5.233,2.112 10.42,3.914 11.52,4.006 l 2.003002,0.1668 1.001,-11.11 3.716,-5.669 11.02,1.295 10.83,5.121 6.987,6.59 v 5.014 c 0,2.758 -0.2818,6.424 -0.6263,8.146 l -0.6261,3.131 -3.95,4.488 -3.951,4.488 1.26,2.038 h 3.666 l 4.626,3.746 -1.189,13.9 c -1.369,16 -2.396,23.64 -4.536,33.75 -0.8378,3.957 -1.96,9.447 -2.493,12.2 -0.5337,2.754 -1.712,8.321 -2.619,12.37 l -1.648,7.362 -4.972,9.812 h -1.736 l -0.604,-2.253 c -0.3322,-1.239 -0.6099,-4.634 -0.6176,-7.543 l -0.02,-5.29 -2.706,-6.478 -0.7386,-12.96 -0.7384,-12.96 -8.583,-25.12 -8.626002,-16.82 -7.197,-7.565 -5.549,-1.393 -4.386,1.675 c -2.412,0.9214 -7.238,3.557 -10.72,5.857 l -6.336,4.182 -18.67,18.92 -14.76,22.18 -7.001,14.52 c -7.518,15.6 -12.5500001,28.49 -16.6600001,42.64 l -2.572,8.875 -0.6202,7.541 -0.6203,7.541 -4.688,5.641 1.474,2.85 c 0.8106,1.567 2.758,3.904 4.327,5.191 l 2.853,2.342 2.683,4.698 2.682,4.698 9.4990001,9.727 9.705,4.683 22.34,-1.05 9.698,-3.142 c 5.334,-1.728 12.29,-4.288 15.46,-5.688 l 5.759,-2.547 3.559,0.9307 5.752,-5.497 14.120002,-5.397 1.866,-2.062 c 1.027,-1.134 3.043,-2.671 4.482,-3.415 l 2.615,-1.352 2.376,-5.602 5.669,-3.443 c 3.118,-1.894 7.362,-4.973 9.431,-6.843 l 3.762,-3.399 7.95,-12.59 2.996,-1.15 2.451,2.954 -1.117,2.219 c -0.6143,1.221 -2.224,6.81 -3.577,12.42 l -2.46,10.2 -9.668,17.65 -13.39,13.4 -5.747,2.972 -3.862,-0.345 -5.572,11.02 -21.510002,13.4 -18.03,5.986 -7.834,1.071 c -8.579,1.173 -13.24,1.189 -21.93,0.074 z m -944.599978,-17.42 -3.868,-1.454 -5.967,-5.667 -3.933,-7.648 -1.125,-9.495 4.778,-5.554 12.55,-1.48 3.41,-3.41 0.5138,-9.235 0.5136,-9.235 6.009,-1.023 0.3107,-2.687 0.3109,-2.687 -2.815,-1.792 c -1.548,-0.9857 -3.146,-2.253 -3.55,-2.817 l -0.736,-1.025 -0.0402,-57.64 1.252,-0.3857 c 0.6885,-0.2121 2.442,-0.6448 3.896,-0.9614 l 2.644,-0.5758 0.6362,-1.657 0.636,-1.657 -1.277,-1.709 c -0.7022,-0.9401 -2.794,-3.691 -4.648,-6.113 l -3.371,-4.404 0.8096,-16.02 c 0.4452,-8.813 0.8356,-20.38 0.8674,-25.71 l 0.0584,-9.686 -4.837,-5.145 -11.19,-4.171 -4.345,-4.058 -4.266,-9.916 -0.33,-11.84 4.691,-4.994 17.27,-6.312 31.05,-5.793 36.05,0.043 19.26,1.874 8.23,3.004 c 4.526,1.652 11.02,4.562 14.42,6.466 3.406,1.905 8.233,5.259 10.73,7.455 l 4.535,3.992 12.71,17.72 9.599,20.03 3.364,13.02 0.1812,15.02 -2.594,11.02 -7.831,16.02 -5.754,6.686 c -3.165,3.677 -8.008,8.687 -10.76,11.13 -2.754,2.446 -8.537,6.978 -12.85,10.07 l -7.844,5.626 -12.19,5.896 c -15.36,7.433 -33.29,14.61 -41.73,16.71 -3.58,0.8894 -8.18,2.046 -10.22,2.57 l -3.71,0.9524 -3.095,3.095 v 25.98 l 4.594,4.594 8.165,1.306 2.508,3.022 10.27,0.028 8.646,3.011 0.9278,-0.5733 c 0.8734,-0.5399 21.96,-1.661 28.48,-1.515 1.652,0.037 4.582,0.074 6.51,0.082 1.928,0.01 4.119,0.2344 4.87,0.5034 l 1.365,0.4891 -2.474,2.98 h -1.564 c -0.8603,0 -3.622,0.9574 -6.137,2.128 -2.515,1.17 -7.277,3.384 -10.58,4.92 -3.305,1.536 -8.713,3.556 -12.02,4.489 -3.305,0.9329 -7.489,2.324 -9.298,3.092 l -3.289,1.395 h -7.498 l -2.19,1.534 c -3.274,2.293 -9.677,4.366 -20.29,6.569 l -9.514,1.975 -24.04,1.001 -3.869,-1.454 z m 74.84,-111.5 8.878,-3.508 8.668,1.3 3.211,-4.901 -1.206,-4.806 3.952,-3.578 4.301,2.302 3.049,-2.531 -0.5572,-2.786 -0.5571,-2.786 5.003,-5.717 c 6.249,-7.142 11.29,-14.69 14.78,-22.13 l 2.694,-5.75 6e-4,-9.014 6.1e-4,-9.014 -5.329,-11.37 -8.197,-8.892 -11.68,-5.241 -15.37,-2.286 -9.758,1.184 c -5.367,0.6512 -10.51,1.401 -11.43,1.666 l -1.671,0.4824 -6.938,-6.092 h -4.172 l -1.037,1.937 c -0.5701,1.065 -1.037,3.018 -1.037,4.339 v 2.402 l -3.677,2.421 c -2.022,1.332 -4.56,3.622 -5.639,5.089 l -1.962,2.668 -0.8241,15.86 -0.8243,15.86 -0.0926,57.2 1.252,1.578 c 0.6885,0.8682 1.928,1.781 2.754,2.029 l 1.502,0.4508 23.03,-4.864 8.878,-3.508 z m 94.28,109.2 c -1.652,-0.2192 -5.405,-1.076 -8.339,-1.903 l -5.335,-1.505 -8.446,-8.446 -8.798,-23 -0.4178,-13.48 -0.418,-13.48 1.189,-7.374 1.19,-7.374 2.412,-7.091 c 1.326,-3.9 4.028,-10.03 6.004,-13.63 4.303,-7.828 11.15,-16.93 17.68,-23.5 l 4.775,-4.802 16.6,-7.966 10.21,-1.21 10.39,5.656 10.64,10.22 4.995,9.915 2.252,10.61 v 25.44 l -1.045,3.765 -1.046,3.765 -4.407,2.86 -7.011,1.146 c -7.029,1.149 -41.56,9.725 -49.07,12.19 l -4.006,1.313 -3.491,7.137 1.698,4.444 c 0.934,2.444 2.75,6.15 4.035,8.236 l 2.336,3.792 6.439,4.061 12.2,-0.8725 6.42,-2.831 c 3.531,-1.557 11.83,-6.065 18.43,-10.02 l 12.01,-7.187 2.729,1.047 -0.5353,3.3 c -0.2946,1.815 -1.444,5.353 -2.554,7.864 l -2.019,4.564 h -4.976 l -3.282,3.282 0.159,4.118 c 0.0885,2.265 0.1187,4.606 0.0664,5.204 l -0.0926,1.086 -17.58,8.356 -6.982,1.479 c -6.915,1.465 -9.171,1.587 -14.99,0.8152 z m 9.573,-73.9 16.47,-3.703 8.342,-3.632 2.174,-4.063 v -21.12 l -3.229,-8.071 -4.731,-1.187 -9.042,4.377 -7.483,6.988 c -4.116,3.844 -9.02,9.101 -10.9,11.68 -1.878,2.583 -5.325,8.379 -7.659,12.88 l -4.244,8.184 1.419,2.296 1.209,-0.464 c 0.6651,-0.2552 8.619,-2.13 17.68,-4.167 z m 317.3,72.22 c -1.993,-0.7121 -5.264,-2.309 -7.27,-3.548 l -3.647,-2.254 -2.506,-4.276 c -1.378,-2.352 -4.191,-8.96 -6.251,-14.68 l -3.745,-10.41 0.1852,-32.05 4.34,-16.02 8.121,-17.03 5.425,-7.098 c 2.984,-3.904 7.92,-9.458 10.97,-12.34 l 5.545,-5.244 15.09,-6.97 9.75098,-1.155 8.679,4.238 12.44,11.13 3.297,6.691 3.296,6.691 0.3244,17.55 0.3246,17.55 -2.062,5.404 -4.596,2.982 -9.044,1.559 c -4.974,0.8572 -17.58998,3.835 -28.03998,6.617 l -19,5.058 -9.013,4.42 0.338,12.36 4.087,9.24 7.029,2.937 14.59,-0.032 16.88998,-6.85 3.805,2.036 1.83,-1.656 c 1.006,-0.9107 2.079,-2.637 2.385,-3.835 l 0.5551,-2.18 12.6,-8.513 h 3.686 l 2.865,-2.04 c 1.575,-1.122 4.95,-2.962 7.498,-4.09 l 4.634,-2.05 0.5234,0.5236 0.5237,0.5236 -3.357,8.791 -3.905,5.159 c -2.148,2.838 -4.804,6.923 -5.904,9.078 l -1.999,3.918 -10.14,8.866 -18.47998,9.299 -9.532,2.501 -3.1,-4.426 -5.394,0.01 -4.006,2.467 c -2.203,1.357 -4.682,2.462 -5.508,2.455 -0.8261,-0.01 -3.133,-0.5953 -5.125,-1.307 z m 16.14,-71.79 c 7.436,-1.647 16.34,-3.923 19.78998,-5.057 l 6.27,-2.063 2.212,-4.132 0.1348,-11.62 0.1349,-11.62 -4.168,-7.01 -7.01398,0.1988 -12.31,8.362 -4.759,-1.194 -3.294,3.294 0.6134,2.444 0.6136,2.444 -3.971,5.245 c -2.184,2.885 -5.84,8.681 -8.124,12.88 l -4.153,7.635 v 4.494 l 2.253,-0.6527 c 1.239,-0.359 8.337,-2 15.77,-3.648 z m 622.19998,72.47 -2.233,-0.4314 -4.046,-5.144 v -3.49 l -2.829,-2.348 -6.07,2.555 c -3.338,1.405 -9.574,3.712 -13.86,5.126 l -7.789,2.572 -18.19,1.138 -10.63,-3.53 -7.728,-6.982 -3.016,-10.16 v -9.56 l 4.853,-13.37 7.497,-10.88 11.19,-8.076 24.04,-11.71 17.64,-4.4 4.206,-3.406 -2.212,-19.47 -3.616,-7.397 -16.02,-0.564 -16.02,7.789 -7.511,5.573 c -4.131,3.065 -8.087,6.172 -8.79,6.903 -0.7034,0.7316 -2.362,2.682 -3.686,4.335 l -2.407,3.005 -1.205,-1.185 -1.204,-1.185 2.703,-6.827 c 1.486,-3.755 4.138,-9.24 5.892,-12.19 l 3.189,-5.362 5.883,-4.934 c 3.235,-2.714 7.757,-6.032 10.05,-7.375 2.291,-1.343 6.178,-3.157 8.639,-4.033 l 4.474,-1.592 14.41,-0.081 10.71,4.905 7.339,6.444 4.859,10.38 2.278,10.82 0.9642,14.12 c 0.5303,7.764 0.9708,18.06 0.9791,22.88 l 0.02,8.763 h 0.9425 c 0.5182,0 1.221,-0.4507 1.561,-1.002 l 0.6189,-1.002 h 4.138 l -0.6501,3.255 c -0.3574,1.79 -1.991,6.122 -3.63,9.627 l -2.98,6.372 v 3.782 h 1.057 c 0.5808,0 3.623,-1.316 6.76,-2.925 8.406,-4.311 14.69,-7.09 16.03,-7.09 h 1.186 v 0.9307 c 0,0.5119 -1.834,3.692 -4.075,7.066 l -4.075,6.135 -0.7718,4.883 -0.772,4.883 -3.245,4.953 -10.6,6.015 -5.44,1.596 c -2.992,0.8777 -5.696,1.534 -6.009,1.459 -0.3132,-0.075 -1.574,-0.3305 -2.803,-0.5678 z m -35.82,-22.8 7.694,-1.472 5.664,-2.583 c 3.115,-1.421 7.356,-3.75 9.424,-5.177 l 3.76,-2.594 3.997,-6.468 v -8.368 l -4.917,-4.916 h -3.852 l -3.01,-4.506 -3.833,3.443 -13.56,4.188 -3.692,3.264 c -2.031,1.795 -5.816,4.762 -8.412,6.593 l -4.72,3.33 -2.44,3.612 c -1.342,1.987 -2.748,4.648 -3.124,5.915 l -0.684,2.302 3.217,4.909 h 10.79 z m -507.6,18.1 -3.675,-3.675 -5.008,-9.882 v -4.956 l 2.494,-1.541 17.04,-0.079 0.603,-20.03 0.6029,-20.03 1.23,-5.243 1.229,-5.243 -0.3303,-12.96 -0.3302,-12.96 -4.436,-4.716 0.579,-2.214 0.5792,-2.214 -3.367,-1.292 -4.372,2.3 -10.02,-3.83 -0.3409,-1.695 -0.3411,-1.695 4.447,-4.733 17.27,-6.344 11.14,-0.2367 5.55,3.637 2.837,6.79 v 10.08 l 2.504,-10e-4 11.46,-12.81 8.707,-4.215 h 4.609 c 2.535,0 5.357,0.2868 6.27,0.6373 l 1.661,0.6374 1.8,4.734 h 5.684 l 5.134,5.508 8.26,17.1 -0.058,1.968 c -0.032,1.082 -0.8611,5.05 -1.843,8.817 l -1.786,6.849 -8.832,3.946 -5.322,5.085 -11.96,-5.366 -1.088,-2.387 -1.087,-2.387 0.8298,-0.5129 0.8299,-0.5129 3.582,3.958 h 5.316 l 3.28,-2.504 1.541,-4.507 c 0.8477,-2.479 1.548,-5.316 1.556,-6.305 l 0.02,-1.798 -2.504,-2.504 c -1.377,-1.377 -2.504,-2.855 -2.504,-3.285 0,-0.4298 -1.043,-1.761 -2.318,-2.959 l -2.318,-2.178 h -10.94 l -4.496,3.149 -2.843,5.686 c -1.564,3.128 -3.57,7.94 -4.458,10.69 -0.8883,2.754 -2.766,11.76 -4.174,20.01 l -2.559,15 -0.2012,15.52 3.432,5.238 8.608,3.808 1.09,4.167 4.108,-2.199 3.929,2.453 4.976,-2.664 2.831,0.7067 c 1.557,0.3887 3.507,1.287 4.334,1.996 0.8263,0.7093 2.751,1.586 4.277,1.949 l 2.775,0.6595 4.18,-2.237 1.917,1.917 -3.432,3.432 -4.06,-1.062 -2.578,1.387 c -3.917,2.108 -12.1,4.527 -15.31,4.527 h -2.866 l -8.433,4.365 -11.02,0.7417 c -6.059,0.4079 -15.33,1.064 -20.61,1.459 l -9.595,0.717 -3.675,-3.675 z m 581.1,0.758 c -1.43,-1.575 -3.346,-3.978 -4.256,-5.34 l -1.656,-2.476 v -5.564 l 1.963,-1.964 1.964,-1.964 11.09,-3.225 0.571,-2.275 0.5709,-2.275 -0.3192,-35.96 -0.3193,-35.96 -4.114,-7.004 -6.902,-4.651 v -2.366 l 9.514,-3.229 c 5.233,-1.776 10.42,-3.241 11.52,-3.255 l 2.003,-0.025 5.19,6.51 1.281,4.006 c 0.7048,2.203 1.663,4.419 2.129,4.924 l 0.8475,0.9182 14.59,-15.15 8.513,-2.285 7.555,2.034 8.499,6.25 2.391,4.159 c 1.315,2.287 2.687,5.584 3.05,7.325 l 0.6591,3.166 -1.129,6.348 c -0.621,3.491 -2.266,10.11 -3.656,14.71 l -2.527,8.361 -11.85,12.14 -0.6152,-0.6152 -0.615,-0.6152 3.427,-13.98 -1.139,-20.52 -2.022,-2.022 -11.12,3.506 -3.084,4.193 c -1.696,2.306 -3.707,5.643 -4.467,7.417 l -1.383,3.224 -5.006,32.98 v 12.24 l 1.465,2.833 c 0.8058,1.558 2.045,3.05 2.754,3.315 0.709,0.2648 6.697,0.1594 13.31,-0.2343 l 12.02,-0.7157 1.81,1.62 -2.746,3.6 c -1.51,1.98 -4.206,4.557 -5.991,5.727 l -3.245,2.127 -4.33,6.606 -5.239,3.432 -9.66,0.7247 c -5.313,0.3986 -13.94,1.041 -19.17,1.428 l -9.514,0.7027 -2.6,-2.863 z m 85.54,1.013 c -1.201,-1.03 -3.342,-3.626 -4.757,-5.768 l -2.574,-3.895 v -3.88 l 5.612,-5.612 8.294,-1.401 1.934,-2.347 0.2134,-35.05 0.2135,-35.05 -2,-9.586 -3.527,-3.897 -10.24,-3.814 -0.5462,-2.732 25.4,-4.532 2.598,1.652 c 1.429,0.9086 3.596,2.83 4.815,4.269 l 2.218,2.617 0.6482,3.255 0.648,3.255 2.281,-0.016 9.412,-11.8 11.01,-5.387 3.308,0.7127 c 1.82,0.392 4.66,1.386 6.313,2.209 3.856,1.92 8.325,6.075 10.02,9.315 l 1.327,2.539 -1.43,12.98 -1.429,12.98 -2.966,4.507 c -1.631,2.479 -3.737,5.971 -4.68,7.762 l -1.713,3.255 h -3.243 l -0.194,-16.52 -3.406,-8.474 -6.544,-4.044 h -5.026 l -2.003,4.757 c -1.102,2.616 -2.709,7.011 -3.571,9.765 -1.701,5.431 -5.19,26.72 -6.26,38.19 l -0.6661,7.14 1.17,3.546 c 0.6434,1.95 1.711,3.987 2.371,4.527 l 1.201,0.981 5.508,-0.9856 c 3.03,-0.5421 8.212,-1.107 11.52,-1.256 3.305,-0.1485 6.752,-0.5918 7.66,-0.9851 l 1.652,-0.7149 0.7088,1.147 0.7092,1.147 -13.17,12.66 -1.564,3.91 -1.565,3.91 -6.412,3.788 -9.534,0.7075 c -5.244,0.3891 -13.59,1.033 -18.55,1.43 l -9.013,0.7223 -2.183,-1.873 z m 113.9,0.085 -5.508,-1.513 -10.64,-7.287 -7.852,-9.182 -5.836,-12.02 -2.206,-10.61 0.04,-18.43 0.9738,-6.733 0.9739,-6.733 2.15,-6.286 c 2.831,-8.274 7.422,-17.39 11.12,-22.08 l 2.977,-3.777 6.281,-4.482 c 3.455,-2.465 8.744,-5.61 11.75,-6.988 l 5.473,-2.506 14.85,-1.21 13.98,3.288 8.368,4.904 6.193,7.819 3.476,7.371 c 1.912,4.054 4.194,10.07 5.071,13.38 l 1.595,6.009 0.5599,9.514 0.5596,9.514 -1.62,8.513 c -0.8914,4.682 -2.083,10.16 -2.647,12.18 l -1.027,3.671 -6.963,4.108 v 1.55 c 0,0.8523 0.5559,2.44 1.235,3.528 l 1.235,1.978 -1.986,3.703 c -1.092,2.037 -4.087,6.004 -6.654,8.817 l -4.668,5.114 -10.69,5.904 -25.04,0.4857 -5.508,-1.513 z m 23.99,-20.74 5.523,-1.252 7.664,-7.636 1.946,-4.541 1.947,-4.541 2.208,-14.23 -0.6659,-14.07 c -0.3663,-7.739 -0.6476,-16.17 -0.6249,-18.72 l 0.04,-4.652 -2.705,-1.772 c -1.488,-0.9749 -5.104,-3.726 -8.035,-6.114 l -5.33,-4.341 h -6.57 l -10.28,3.054 -6.452,5.429 -7.618,11.79 -0.6109,3.636 c -0.3361,2 -0.8211,4.404 -1.078,5.344 -0.2568,0.9395 -2.246,3.861 -4.42,6.491 l -3.952,4.783 v 3.096 l 3.697,3.165 0.6879,5.854 0.6881,5.854 8.659,18.28 2.935,2.09 c 3.464,2.467 8.516,4.045 13.35,4.171 1.912,0.05 5.961,-0.473 8.999,-1.162 z m 89.4,19.7 -5.18,-2.582 -2.575,-3.06 c -1.416,-1.683 -3.414,-4.705 -4.439,-6.714 l -1.864,-3.654 -1.093,-5.911 -1.092,-5.911 -0.07,-26.61 -0.071,-26.61 -1.566,-4.006 h -14.46 l -7.874,-8.436 v -5.112 l -1.16,-1.857 -1.159,-1.857 0.5458,-1.423 0.546,-1.423 11.82,-6.194 11.56,-2.586 2.39,-4.163 -0.2568,-20.36 -0.257,-20.36 -2.129,-3.978 2.387,-2.876 h 4 l 11.72,7.12 4.216,5.921 1.166,30.34 3.72,3.72 2.739,-0.6581 c 1.506,-0.362 4.316,-1.439 6.244,-2.393 l 3.505,-1.735 15.74,-1.445 7.299,-3.11 10.49,-0.2041 0.4906,1.28 0.4909,1.28 -1.732,1.412 c -0.9525,0.7764 -3.846,3.13 -6.429,5.23 -2.584,2.1 -8.52,7.233 -13.19,11.41 l -8.495,7.588 -8.841,3.343 c -4.862,1.839 -9.516,3.96 -10.34,4.714 l -1.502,1.371 -0.3226,27.76 -0.3228,27.76 0.6492,5.291 0.649,5.291 4.648,5.404 6.157,-2.965 11.4,-11.15 c 6.27,-6.134 12.38,-11.68 13.57,-12.31 l 2.171,-1.162 1.71,1.057 -0.8096,4.275 c -0.4454,2.351 -1.529,5.984 -2.409,8.072 l -1.599,3.797 -6.216,5.554 2.318,4.332 -1.573,3.779 -1.573,3.778 -4.209,4.381 c -2.315,2.41 -6.213,5.677 -8.662,7.261 l -4.453,2.88 h -11.23 l -5.181,-2.582 z"
       id="path2" />
    <text
       xml:space="preserve"
       style="font-style:normal;font-variant:normal;font-weight:normal;font-stretch:normal;font-size:291.935px;line-height:1.25;font-family:'Kenney Blocks';-inkscape-font-specification:'Kenney Blocks, Normal';font-variant-ligatures:normal;font-variant-caps:normal;font-variant-numeric:normal;font-variant-east-asian:normal;fill:#000000;fill-opacity:1;stroke:none;stroke-width:7.29837"
       x="2363.9478"
       y="1165.7997"
       id="text3487"
       inkscape:export-filename="/home/gerardo/Documents/curso_python_2022/lista_ejemplos/html_bootstrap_jquery_addons/01_unificacion_3modulos/assets/gatunos_extra_logo02.png"
       inkscape:export-xdpi="96"
       inkscape:export-ydpi="96"><tspan
         sodipodi:role="line"
         id="tspan3485"
         style="font-style:normal;font-variant:normal;font-weight:normal;font-stretch:normal;font-size:291.935px;font-family:'Kenney Blocks';-inkscape-font-specification:'Kenney Blocks, Normal';font-variant-ligatures:normal;font-variant-caps:normal;font-variant-numeric:normal;font-variant-east-asian:normal;stroke-width:7.29837"
         x="2363.9478"
         y="1165.7997">ADOPTA</tspan></text>
    <text
       xml:space="preserve"
       style="font-style:normal;font-variant:normal;font-weight:normal;font-stretch:normal;font-size:291.935px;line-height:1.25;font-family:'Kenney Blocks';-inkscape-font-specification:'Kenney Blocks, Normal';font-variant-ligatures:normal;font-variant-caps:normal;font-variant-numeric:normal;font-variant-east-asian:normal;fill:#000000;fill-opacity:1;stroke:none;stroke-width:7.29837"
       x="298.42886"
       y="1495.7344"
       id="text3487-7"
       inkscape:export-filename="/home/gerardo/Documents/curso_python_2022/lista_ejemplos/html_bootstrap_jquery_addons/01_unificacion_3modulos/assets/gatunos_extra_logo01.png"
       inkscape:export-xdpi="96"
       inkscape:export-ydpi="96"><tspan
         sodipodi:role="line"
         id="tspan3485-8"
         style="font-style:normal;font-variant:normal;font-weight:normal;font-stretch:normal;font-size:291.935px;font-family:'Kenney Blocks';-inkscape-font-specification:'Kenney Blocks, Normal';font-variant-ligatures:normal;font-variant-caps:normal;font-variant-numeric:normal;font-variant-east-asian:normal;stroke-width:7.29837"
         x="298.42886"
         y="1495.7344">FUNDACIÓN</tspan></text>
    <text
       xml:space="preserve"
       style="font-style:normal;font-variant:normal;font-weight:normal;font-stretch:normal;font-size:291.935px;line-height:1.25;font-family:'Kenney Blocks';-inkscape-font-specification:'Kenney Blocks, Normal';font-variant-ligatures:normal;font-variant-caps:normal;font-variant-numeric:normal;font-variant-east-asian:normal;fill:#000000;fill-opacity:1;stroke:none;stroke-width:7.29837"
       x="301.59985"
       y="1130.5797"
       id="text3487-3"><tspan
         sodipodi:role="line"
         id="tspan3485-88"
         style="font-style:normal;font-variant:normal;font-weight:normal;font-stretch:normal;font-size:291.935px;font-family:'Kenney Blocks';-inkscape-font-specification:'Kenney Blocks, Normal';font-variant-ligatures:normal;font-variant-caps:normal;font-variant-numeric:normal;font-variant-east-asian:normal;stroke-width:7.29837"
         x="301.59985"
         y="1130.5797">GATUNOS</tspan></text>
    <path
       style="fill:#ffff00;stroke-width:2.84579"
       d="m 340.01803,1002.5194 v -89.64221 h 52.647 52.647 v 17.07471 17.0747 h -35.5723 -35.5723 v 55.4928 55.4928 h 18.4976 18.4976 v -35.5723 -35.57231 h 17.0747 17.0747 v 52.64701 52.647 h -52.647 -52.647 z"
       id="path83-3" />
    <path
       style="fill:#ffff00;stroke-width:2.84579"
       d="m 559.14333,1002.5194 v -89.64221 h 52.647 52.647 v 89.64221 89.6422 h -17.0747 -17.0747 v -35.5723 -35.5723 h -18.4976 -18.4976 v 35.5723 35.5723 h -17.0747 -17.0747 z m 71.1446,-35.57232 V 947.0266 h -18.4976 -18.4976 v 19.92048 19.92051 h 18.4976 18.4976 z"
       id="path122-1" />
    <path
       style="fill:#ffff00;stroke-width:2.84579"
       d="m 814.60133,1020.3055 -0.7603,-71.85601 -17.7862,-0.84724 -17.7861,-0.84724 V 929.8161 912.87719 h 52.647 52.64695 v 17.07471 17.0747 h -18.4976 -18.49755 v 72.5675 72.5675 h -15.6029 -15.603 z"
       id="path161-8" />
    <path
       style="fill:#ffff00;stroke-width:2.84579"
       d="m 997.39398,1002.5194 v -89.64221 h 15.65192 15.6518 v 72.5675 72.56751 h 19.9204 19.9205 v -72.56751 -72.5675 h 17.0748 17.0746 v 89.64221 89.6422 h -52.647 -52.64702 z"
       id="path200-9" />
    <path
       style="fill:#ffff00;stroke-width:2.84579"
       d="m 1216.5194,1002.5194 v -89.64221 h 34.1494 34.1494 v 17.07471 17.0747 h -18.4976 -18.4976 v 72.5675 72.5675 h -15.6518 -15.6518 z"
       id="path239-6" />
    <path
       style="fill:#ffff00;stroke-width:2.84579"
       d="m 1432.799,1002.5194 v -89.64221 h 54.0699 54.0699 v 89.64221 89.6422 h -54.0699 -54.0699 z m 73.9904,0 v -55.4928 h -19.9205 -19.9205 v 55.4928 55.4928 h 19.9205 19.9205 z"
       id="path278-4" />
    <path
       style="fill:#ffff00;stroke-width:2.84579"
       d="m 1287.664,1021.017 v -71.14462 h 17.0747 17.0747 v 71.14462 71.1446 h -17.0747 -17.0747 z"
       id="path317-3" />
    <path
       style="fill:#ffff00;stroke-width:2.84579"
       d="m 1651.9243,1075.0869 v -17.0747 h 36.9952 36.9952 v -18.4976 -18.4976 h -36.9952 -36.9952 v -54.06992 -54.06989 h 54.0699 54.0699 v 17.07471 17.0747 h -36.9952 -36.9952 v 19.92048 19.92051 h 36.9952 36.9952 v 52.64701 52.647 h -54.0699 -54.0699 z"
       id="path356-3"
       inkscape:export-filename="/home/gerardo/Documents/curso_python_2022/lista_ejemplos/html_bootstrap_jquery_addons/01_unificacion_3modulos/assets/path356.png"
       inkscape:export-xdpi="96"
       inkscape:export-ydpi="96" />
    <text
       xml:space="preserve"
       transform="matrix(2.8145229,0,0,2.8145229,450.60512,176.44244)"
       id="text22080"
       style="fill:black;fill-opacity:1;line-height:1.25;stroke:none;font-family:sans-serif;font-style:normal;font-weight:normal;font-size:40px;white-space:pre;shape-inside:url(#rect22082)" />
    <text
       xml:space="preserve"
       style="font-style:normal;font-variant:normal;font-weight:normal;font-stretch:normal;font-size:291.935px;line-height:1.25;font-family:'Kenney Blocks';-inkscape-font-specification:'Kenney Blocks, Normal';font-variant-ligatures:normal;font-variant-caps:normal;font-variant-numeric:normal;font-variant-east-asian:normal;fill:#000000;fill-opacity:1;stroke:none;stroke-width:7.29837"
       x="2371.3328"
       y="1495.5718"
       id="text3487-77"
       inkscape:export-filename="/home/gerardo/Documents/curso_python_2022/lista_ejemplos/html_bootstrap_jquery_addons/01_unificacion_3modulos/assets/gatunos_extra_logo03.png"
       inkscape:export-xdpi="96"
       inkscape:export-ydpi="96"><tspan
         sodipodi:role="line"
         id="tspan3485-6"
         style="font-style:normal;font-variant:normal;font-weight:normal;font-stretch:normal;font-size:291.935px;font-family:'Kenney Blocks';-inkscape-font-specification:'Kenney Blocks, Normal';font-variant-ligatures:normal;font-variant-caps:normal;font-variant-numeric:normal;font-variant-east-asian:normal;stroke-width:7.29837"
         x="2371.3328"
         y="1495.5718">UN GATITO</tspan></text>
    <path
       d="m 2402.3657,1037.7392 v -89.64213 h 52.647 52.647 v 89.64213 89.6422 h -17.0747 -17.0747 v -35.5723 -35.5723 h -18.4976 -18.4976 v 35.5723 35.5723 h -17.0747 -17.0747 z m 71.1446,-35.5723 v -19.92043 h -18.4976 -18.4976 v 19.92043 19.9205 h 18.4976 18.4976 z"
       id="path44172"
       style="fill:#ffff00;stroke-width:2.84579"
       inkscape:export-filename="/home/gerardo/Documents/curso_python_2022/lista_ejemplos/html_bootstrap_jquery_addons/01_unificacion_3modulos/assets/gatunos_extra_logo02.png"
       inkscape:export-xdpi="96"
       inkscape:export-ydpi="96" />
    <path
       style="fill:#ffff00;stroke-width:2.84579"
       d="m 2621.491,1037.7392 v -89.64213 h 34.1495 34.1494 v 17.0747 17.0747 h -17.0748 -17.0746 v 55.49273 55.4928 h 17.0746 17.0748 v 17.0747 17.0747 h -34.1494 -34.1495 z"
       id="path44248"
       inkscape:export-filename="/home/gerardo/Documents/curso_python_2022/lista_ejemplos/html_bootstrap_jquery_addons/01_unificacion_3modulos/assets/gatunos_extra_logo02.png"
       inkscape:export-xdpi="96"
       inkscape:export-ydpi="96" />
    <path
       style="fill:#ffff00;stroke-width:2.84579"
       d="m 2692.6356,1037.7392 v -52.64693 h 17.0748 17.0747 v 52.64693 52.647 h -17.0747 -17.0748 z"
       id="path44287"
       inkscape:export-filename="/home/gerardo/Documents/curso_python_2022/lista_ejemplos/html_bootstrap_jquery_addons/01_unificacion_3modulos/assets/gatunos_extra_logo02.png"
       inkscape:export-xdpi="96"
       inkscape:export-ydpi="96" />
    <path
       style="fill:#ffff00;stroke-width:2.84579"
       d="m 2840.6164,1037.7392 v -89.64213 h 52.647 52.647 v 89.64213 89.6422 h -52.647 -52.647 z m 71.1446,0 v -55.49273 h -18.4976 -18.4976 v 55.49273 55.4928 h 18.4976 18.4976 z"
       id="path44326"
       inkscape:export-filename="/home/gerardo/Documents/curso_python_2022/lista_ejemplos/html_bootstrap_jquery_addons/01_unificacion_3modulos/assets/gatunos_extra_logo02.png"
       inkscape:export-xdpi="96"
       inkscape:export-ydpi="96" />
    <path
       style="fill:#ffff00;stroke-width:2.84579"
       d="m 3059.7418,1037.7392 v -89.64213 h 52.647 52.647 v 54.06983 54.0699 h -36.9952 -36.9952 v 35.5723 35.5723 h -15.6518 -15.6518 z m 71.1446,-35.5723 v -19.92043 h -19.9205 -19.9205 v 18.02323 c 0,9.9128 0.8538,18.8771 1.8972,19.9205 1.0435,1.0435 10.0077,1.8972 19.9205,1.8972 h 18.0233 z"
       id="path44365"
       inkscape:export-filename="/home/gerardo/Documents/curso_python_2022/lista_ejemplos/html_bootstrap_jquery_addons/01_unificacion_3modulos/assets/gatunos_extra_logo02.png"
       inkscape:export-xdpi="96"
       inkscape:export-ydpi="96" />
    <path
       style="fill:#ffff00;stroke-width:2.84579"
       d="m 3313.0166,1054.8139 v -72.56743 h -17.0747 -17.0747 v -17.0747 -17.0747 h 52.647 52.647 v 17.0747 17.0747 h -18.4976 -18.4976 v 72.56743 72.5675 h -17.0747 -17.0747 z"
       id="path44404"
       inkscape:export-filename="/home/gerardo/Documents/curso_python_2022/lista_ejemplos/html_bootstrap_jquery_addons/01_unificacion_3modulos/assets/gatunos_extra_logo02.png"
       inkscape:export-xdpi="96"
       inkscape:export-ydpi="96" />
    <path
       style="fill:#ffff00;stroke-width:2.84579"
       d="m 3495.1467,1037.7392 v -89.64213 h 54.0699 54.0699 v 89.64213 89.6422 h -17.0747 -17.0747 v -35.5723 -35.5723 h -19.9205 -19.9205 v 35.5723 35.5723 h -17.0747 -17.0747 z m 73.9904,-35.5723 v -19.92043 h -19.9205 -19.9205 v 19.92043 19.9205 h 19.9205 19.9205 z"
       id="path44443"
       inkscape:export-filename="/home/gerardo/Documents/curso_python_2022/lista_ejemplos/html_bootstrap_jquery_addons/01_unificacion_3modulos/assets/gatunos_extra_logo02.png"
       inkscape:export-xdpi="96"
       inkscape:export-ydpi="96" />
    <path
       style="fill:#ffff00;stroke-width:2.84579"
       d="m 2408.0573,1367.8501 v -89.6422 h 17.0747 17.0747 v 72.5675 72.5675 h 19.9205 19.9204 v -72.5675 -72.5675 h 17.0747 17.0747 v 89.6422 89.6422 h -54.0698 -54.0699 z"
       id="path44482"
       inkscape:export-filename="/home/gerardo/Documents/curso_python_2022/lista_ejemplos/html_bootstrap_jquery_addons/01_unificacion_3modulos/assets/gatunos_extra_logo03.png"
       inkscape:export-xdpi="96"
       inkscape:export-ydpi="96" />
    <path
       style="fill:#ffff00;stroke-width:2.84579"
       d="m 2627.1826,1367.8501 v -89.6422 h 35.5723 35.5723 v 17.0747 17.0748 h -18.4976 -18.4976 v 72.5675 72.5674 h -17.0747 -17.0747 z"
       id="path44521"
       inkscape:export-filename="/home/gerardo/Documents/curso_python_2022/lista_ejemplos/html_bootstrap_jquery_addons/01_unificacion_3modulos/assets/gatunos_extra_logo03.png"
       inkscape:export-xdpi="96"
       inkscape:export-ydpi="96" />
    <path
       style="fill:#ffff00;stroke-width:2.84579"
       d="m 2701.173,1386.3477 v -71.1446 h 17.0747 17.0747 v 71.1446 71.1446 h -17.0747 -17.0747 z"
       id="path44560"
       inkscape:export-filename="/home/gerardo/Documents/curso_python_2022/lista_ejemplos/html_bootstrap_jquery_addons/01_unificacion_3modulos/assets/gatunos_extra_logo03.png"
       inkscape:export-xdpi="96"
       inkscape:export-ydpi="96" />
    <path
       style="fill:#ffff00;stroke-width:2.84579"
       d="m 2920.2984,1367.8501 v -89.6422 h 52.647 52.647 v 17.0747 17.0748 h -35.5723 -35.5724 v 55.4927 55.4928 h 19.9205 19.9205 v -35.5723 -35.5723 h 15.6518 15.6519 v 52.647 52.647 h -52.647 -52.647 z"
       id="path44599"
       inkscape:export-filename="/home/gerardo/Documents/curso_python_2022/lista_ejemplos/html_bootstrap_jquery_addons/01_unificacion_3modulos/assets/gatunos_extra_logo03.png"
       inkscape:export-xdpi="96"
       inkscape:export-ydpi="96" />
    <path
       style="fill:#ffff00;stroke-width:2.84579"
       d="m 3139.4238,1367.8501 v -89.6422 h 52.647 52.647 v 89.6422 89.6422 h -15.5668 -15.5668 l -0.7965,-36.2837 -0.7965,-36.2837 -19.209,-0.8415 -19.2091,-0.8415 v 37.1252 37.1252 h -17.0747 -17.0746 z m 73.4089,-36.2837 0.8415,-19.209 h -20.0505 -20.0506 v 20.0505 20.0505 l 19.2091,-0.8415 19.209,-0.8415 z"
       id="path44638"
       inkscape:export-filename="/home/gerardo/Documents/curso_python_2022/lista_ejemplos/html_bootstrap_jquery_addons/01_unificacion_3modulos/assets/gatunos_extra_logo03.png"
       inkscape:export-xdpi="96"
       inkscape:export-ydpi="96" />
    <path
       style="fill:#ffff00;stroke-width:2.84579"
       d="m 3395.5443,1384.9249 v -72.5675 h -18.4976 -18.4976 v -17.0748 -17.0747 h 52.647 52.647 v 17.0747 17.0748 h -18.4976 -18.4976 v 72.5675 72.5674 h -15.6518 -15.6518 z"
       id="path44677"
       inkscape:export-filename="/home/gerardo/Documents/curso_python_2022/lista_ejemplos/html_bootstrap_jquery_addons/01_unificacion_3modulos/assets/gatunos_extra_logo03.png"
       inkscape:export-xdpi="96"
       inkscape:export-ydpi="96" />
    <path
       style="fill:#ffff00;stroke-width:2.84579"
       d="m 3577.6745,1440.4176 v -17.0747 h 18.4976 18.4976 v -55.4928 -55.4927 h -18.4976 -18.4976 v -17.0748 -17.0747 h 52.647 52.647 v 17.0747 17.0748 h -18.4976 -18.4976 v 55.4927 55.4928 h 18.4976 18.4976 v 17.0747 17.0747 h -52.647 -52.647 z"
       id="path44716"
       inkscape:export-filename="/home/gerardo/Documents/curso_python_2022/lista_ejemplos/html_bootstrap_jquery_addons/01_unificacion_3modulos/assets/gatunos_extra_logo03.png"
       inkscape:export-xdpi="96"
       inkscape:export-ydpi="96" />
    <path
       style="fill:#ffff00;stroke-width:2.84579"
       d="m 3833.1324,1385.6363 -0.7603,-71.8561 -17.7861,-0.8472 -17.7862,-0.8472 v -16.9389 -16.939 h 52.647 52.6471 v 17.0747 17.0748 h -18.4977 -18.4976 v 72.5675 72.5674 h -15.6029 -15.6029 z"
       id="path44755"
       inkscape:export-filename="/home/gerardo/Documents/curso_python_2022/lista_ejemplos/html_bootstrap_jquery_addons/01_unificacion_3modulos/assets/gatunos_extra_logo03.png"
       inkscape:export-xdpi="96"
       inkscape:export-ydpi="96" />
    <path
       style="fill:#ffff00;stroke-width:2.84579"
       d="m 4015.9252,1367.8501 v -89.6422 h 52.647 52.647 v 89.6422 89.6422 h -52.647 -52.647 z m 71.1446,0 v -55.4927 h -19.9205 -19.9205 v 55.4927 55.4928 h 19.9205 19.9205 z"
       id="path44794"
       inkscape:export-filename="/home/gerardo/Documents/curso_python_2022/lista_ejemplos/html_bootstrap_jquery_addons/01_unificacion_3modulos/assets/gatunos_extra_logo03.png"
       inkscape:export-xdpi="96"
       inkscape:export-ydpi="96" />
    <path
       style="fill:#ffff00;stroke-width:2.84579"
       d="m 336.48918,1368.0128 v -89.6422 h 52.647 52.64701 v 17.0747 17.0747 h -35.5723 -35.5723 v 19.9205 19.9205 h 35.5723 35.5723 v 15.6518 15.6518 h -35.5723 -35.5723 v 36.9952 36.9952 h -17.0747 -17.07471 z"
       id="path44968"
       inkscape:export-filename="/home/gerardo/Documents/curso_python_2022/lista_ejemplos/html_bootstrap_jquery_addons/01_unificacion_3modulos/assets/gatunos_extra_logo01.png"
       inkscape:export-xdpi="96"
       inkscape:export-ydpi="96" />
    <path
       style="fill:#ffff00;stroke-width:2.84579"
       d="m 555.61454,1368.0128 v -89.6422 h 17.07471 17.0747 v 72.5675 72.5675 h 19.92048 19.92049 v -72.5675 -72.5675 h 15.65182 15.65181 v 89.6422 89.6422 h -52.647 -52.64701 z"
       id="path45007"
       inkscape:export-filename="/home/gerardo/Documents/curso_python_2022/lista_ejemplos/html_bootstrap_jquery_addons/01_unificacion_3modulos/assets/gatunos_extra_logo01.png"
       inkscape:export-xdpi="96"
       inkscape:export-ydpi="96" />
    <path
       style="fill:#ffff00;stroke-width:2.84579"
       d="m 774.7399,1368.0128 v -89.6422 h 34.14943 34.14941 v 17.0747 17.0747 h -17.0747 -17.07471 v 72.5675 72.5675 H 791.8146 774.7399 Z"
       id="path45046"
       inkscape:export-filename="/home/gerardo/Documents/curso_python_2022/lista_ejemplos/html_bootstrap_jquery_addons/01_unificacion_3modulos/assets/gatunos_extra_logo01.png"
       inkscape:export-xdpi="96"
       inkscape:export-ydpi="96" />
    <path
       style="fill:#ffff00;stroke-width:2.84579"
       d="m 845.88454,1386.5104 v -71.1446 h 17.07474 17.0747 v 71.1446 71.1446 h -17.0747 -17.07474 z"
       id="path45085"
       inkscape:export-filename="/home/gerardo/Documents/curso_python_2022/lista_ejemplos/html_bootstrap_jquery_addons/01_unificacion_3modulos/assets/gatunos_extra_logo01.png"
       inkscape:export-xdpi="96"
       inkscape:export-ydpi="96" />
    <path
       style="fill:#ffff00;stroke-width:2.84579"
       d="m 993.86528,1368.0128 v -89.6422 h 34.14942 34.1494 v 17.0747 17.0747 h -17.0747 -17.0747 v 55.4928 55.4928 h 17.0747 17.0747 v 17.0747 17.0747 h -34.1494 -34.14942 z"
       id="path45124"
       inkscape:export-filename="/home/gerardo/Documents/curso_python_2022/lista_ejemplos/html_bootstrap_jquery_addons/01_unificacion_3modulos/assets/gatunos_extra_logo01.png"
       inkscape:export-xdpi="96"
       inkscape:export-ydpi="96" />
    <path
       style="fill:#ffff00;stroke-width:2.84579"
       d="m 1065.0099,1368.0128 v -52.647 h 17.0747 17.0747 v 52.647 52.647 h -17.0747 -17.0747 z"
       id="path45163"
       inkscape:export-filename="/home/gerardo/Documents/curso_python_2022/lista_ejemplos/html_bootstrap_jquery_addons/01_unificacion_3modulos/assets/gatunos_extra_logo01.png"
       inkscape:export-xdpi="96"
       inkscape:export-ydpi="96" />
    <path
       style="fill:#ffff00;stroke-width:2.84579"
       d="m 1212.9907,1368.0128 v -89.6422 h 52.647 52.647 v 89.6422 89.6422 h -17.0747 -17.0747 v -36.9952 -36.9952 h -18.4976 -18.4976 v 36.9952 36.9952 h -17.0747 -17.0747 z m 71.1446,-35.5723 V 1312.52 h -18.4976 -18.4976 v 19.9205 19.9205 h 18.4976 18.4976 z"
       id="path45202"
       inkscape:export-filename="/home/gerardo/Documents/curso_python_2022/lista_ejemplos/html_bootstrap_jquery_addons/01_unificacion_3modulos/assets/gatunos_extra_logo01.png"
       inkscape:export-xdpi="96"
       inkscape:export-ydpi="96" />
    <path
       style="fill:#ffff00;stroke-width:2.84579"
       d="m 1432.1161,1368.0128 v -89.6422 h 52.647 52.647 v 17.0747 17.0747 h -36.9952 -36.9952 v 55.4928 55.4928 h 36.9952 36.9952 v 17.0747 17.0747 h -52.647 -52.647 z"
       id="path45241"
       inkscape:export-filename="/home/gerardo/Documents/curso_python_2022/lista_ejemplos/html_bootstrap_jquery_addons/01_unificacion_3modulos/assets/gatunos_extra_logo01.png"
       inkscape:export-xdpi="96"
       inkscape:export-ydpi="96" />
    <path
       style="fill:#ffff00;stroke-width:2.84579"
       d="m 1651.2414,1440.5803 v -17.0747 h 17.0747 17.0747 v -55.4928 -55.4928 h -17.0747 -17.0747 v -17.0747 -17.0747 h 52.647 52.647 v 17.0747 17.0747 h -18.4976 -18.4976 v 55.4928 55.4928 h 18.4976 18.4976 v 17.0747 17.0747 h -52.647 -52.647 z"
       id="path45280"
       inkscape:export-filename="/home/gerardo/Documents/curso_python_2022/lista_ejemplos/html_bootstrap_jquery_addons/01_unificacion_3modulos/assets/gatunos_extra_logo01.png"
       inkscape:export-xdpi="96"
       inkscape:export-ydpi="96" />
    <path
       style="fill:#ffff00;stroke-width:2.84579"
       d="m 1870.3668,1368.0128 v -89.6422 h 52.647 52.647 v 89.6422 89.6422 h -52.647 -52.647 z m 71.1446,0 V 1312.52 h -19.9205 -19.9205 v 55.4928 55.4928 h 19.9205 19.9205 z"
       id="path45319"
       inkscape:export-filename="/home/gerardo/Documents/curso_python_2022/lista_ejemplos/html_bootstrap_jquery_addons/01_unificacion_3modulos/assets/gatunos_extra_logo01.png"
       inkscape:export-xdpi="96"
       inkscape:export-ydpi="96" />
    <path
       style="fill:#ffff00;stroke-width:2.84579"
       d="m 1904.5162,1221.455 v -17.0747 h 35.5723 35.5723 v 17.0747 17.0747 h -35.5723 -35.5723 z"
       id="path45358"
       inkscape:export-filename="/home/gerardo/Documents/curso_python_2022/lista_ejemplos/html_bootstrap_jquery_addons/01_unificacion_3modulos/assets/gatunos_extra_logo01.png"
       inkscape:export-xdpi="96"
       inkscape:export-ydpi="96" />
    <path
       style="fill:#ffff00;stroke-width:2.84579"
       d="m 2086.6464,1368.0128 v -89.6422 h 35.5723 35.5722 v 17.0747 17.0747 h -18.4975 -18.4976 v 72.5675 72.5675 h -17.0747 -17.0747 z"
       id="path45397"
       inkscape:export-filename="/home/gerardo/Documents/curso_python_2022/lista_ejemplos/html_bootstrap_jquery_addons/01_unificacion_3modulos/assets/gatunos_extra_logo01.png"
       inkscape:export-xdpi="96"
       inkscape:export-ydpi="96" />
    <path
       style="fill:#ffff00;stroke-width:2.84579"
       d="m 2160.6367,1386.5104 v -71.1446 h 17.0747 17.0747 v 71.1446 71.1446 h -17.0747 -17.0747 z"
       id="path45436"
       inkscape:export-filename="/home/gerardo/Documents/curso_python_2022/lista_ejemplos/html_bootstrap_jquery_addons/01_unificacion_3modulos/assets/gatunos_extra_logo01.png"
       inkscape:export-xdpi="96"
       inkscape:export-ydpi="96" />
    <text
       xml:space="preserve"
       style="font-style:normal;font-variant:normal;font-weight:normal;font-stretch:normal;font-size:230.334px;line-height:1.25;font-family:'Kenney Blocks';-inkscape-font-specification:'Kenney Blocks, Normal';font-variant-ligatures:normal;font-variant-caps:normal;font-variant-numeric:normal;font-variant-east-asian:normal;fill:#000000;fill-opacity:1;stroke:none;stroke-width:5.75835"
       x="2123.1572"
       y="449.53397"
       id="text3487-7-1"
       inkscape:export-filename="/home/gerardo/Documents/curso_python_2022/lista_ejemplos/html_bootstrap_jquery_addons/01_unificacion_3modulos/assets/gatunos_extra_logo01.png"
       inkscape:export-xdpi="96"
       inkscape:export-ydpi="96"><tspan
         sodipodi:role="line"
         id="tspan3485-8-1"
         style="font-style:normal;font-variant:normal;font-weight:normal;font-stretch:normal;font-size:230.334px;font-family:'Kenney Blocks';-inkscape-font-specification:'Kenney Blocks, Normal';font-variant-ligatures:normal;font-variant-caps:normal;font-variant-numeric:normal;font-variant-east-asian:normal;stroke-width:5.75835"
         x="2123.1572"
         y="449.53397">FUNDACIÓN</tspan></text>
    <text
       xml:space="preserve"
       style="font-style:normal;font-variant:normal;font-weight:normal;font-stretch:normal;font-size:230.334px;line-height:1.25;font-family:'Kenney Blocks';-inkscape-font-specification:'Kenney Blocks, Normal';font-variant-ligatures:normal;font-variant-caps:normal;font-variant-numeric:normal;font-variant-east-asian:normal;fill:#000000;fill-opacity:1;stroke:none;stroke-width:5.75835"
       x="554.40417"
       y="441.66501"
       id="text3487-3-5"><tspan
         sodipodi:role="line"
         id="tspan3485-88-9"
         style="font-style:normal;font-variant:normal;font-weight:normal;font-stretch:normal;font-size:230.334px;font-family:'Kenney Blocks';-inkscape-font-specification:'Kenney Blocks, Normal';font-variant-ligatures:normal;font-variant-caps:normal;font-variant-numeric:normal;font-variant-east-asian:normal;stroke-width:5.75835"
         x="554.40417"
         y="441.66501">GATUNOS</tspan></text>
    <path
       style="fill:#ffff00;stroke-width:2.24532"
       d="m 584.71597,340.62601 v -70.72727 h 41.53819 41.53824 v 13.47186 13.47186 h -28.06633 -28.06634 v 43.78355 43.78352 h 14.59443 14.59453 v -28.06636 -28.06638 h 13.47192 13.47179 v 41.53824 41.53823 h -41.53824 -41.53819 z"
       id="path83-3-7" />
    <path
       style="fill:#ffff00;stroke-width:2.24532"
       d="m 757.60473,340.62601 v -70.72727 h 41.5382 41.53823 v 70.72727 70.72725 H 827.2093 813.73744 v -28.06637 -28.06638 h -14.59451 -14.59454 v 28.06638 28.06637 h -13.47183 -13.47183 z m 56.13271,-28.0664 v -15.71715 h -14.59451 -14.59454 v 15.71715 15.71718 h 14.59454 14.59451 z"
       id="path122-1-7" />
    <path
       style="fill:#ffff00;stroke-width:2.24532"
       d="m 959.15983,354.65913 -0.59989,-56.69404 -14.03322,-0.66847 -14.03315,-0.66845 v -13.36473 -13.3647 h 41.53823 41.5382 v 13.47186 13.47186 H 998.97552 984.381 v 57.2554 57.2554 h -12.3106 -12.31069 z"
       id="path161-8-6" />
    <path
       style="fill:#ffff00;stroke-width:2.24532"
       d="m 1103.3823,340.62601 v -70.72727 h 12.3493 12.3492 v 57.25538 57.25541 h 15.7171 15.7171 v -57.25541 -57.25538 h 13.472 13.4717 v 70.72727 70.72725 h -41.5382 -41.5382 z"
       id="path200-9-7" />
    <path
       style="fill:#ffff00;stroke-width:2.24532"
       d="m 1276.2712,340.62601 v -70.72727 h 26.9437 26.9437 v 13.47186 13.47186 h -14.5945 -14.5945 v 57.2554 57.2554 h -12.3492 -12.3492 z"
       id="path239-6-3" />
    <path
       style="fill:#ffff00;stroke-width:2.24532"
       d="m 1446.9147,340.62601 v -70.72727 h 42.6609 42.6609 v 70.72727 70.72725 h -42.6609 -42.6609 z m 58.3781,0 v -43.78355 h -15.7172 -15.7172 v 43.78355 43.78352 h 15.7172 15.7172 z"
       id="path278-4-6" />
    <path
       style="fill:#ffff00;stroke-width:2.24532"
       d="m 1332.4039,355.22051 v -56.13275 h 13.4719 13.4718 v 56.13275 56.13275 h -13.4718 -13.4719 z"
       id="path317-3-5" />
    <path
       style="fill:#ffff00;stroke-width:2.24532"
       d="m 1619.8035,397.88139 v -13.47186 h 29.189 29.1891 v -14.5945 -14.59452 h -29.1891 -29.189 v -42.6609 -42.66087 h 42.6609 42.6609 v 13.47186 13.47186 h -29.1891 -29.189 v 15.71715 15.71718 h 29.189 29.1891 v 41.53824 41.53823 h -42.6609 -42.6609 z"
       id="path356-3-6"
       inkscape:export-filename="/home/gerardo/Documents/curso_python_2022/lista_ejemplos/html_bootstrap_jquery_addons/01_unificacion_3modulos/assets/path356.png"
       inkscape:export-xdpi="96"
       inkscape:export-ydpi="96" />
    <path
       style="fill:#ffff00;stroke-width:2.24532"
       d="m 2153.1864,348.76225 v -70.72726 h 41.5383 41.5382 v 13.47183 13.47189 h -28.0664 -28.0664 v 15.71715 15.7172 h 28.0664 28.0664 v 12.34919 12.34918 h -28.0664 -28.0664 v 29.18904 29.18903 h -13.4718 -13.4719 z"
       id="path44968-3"
       inkscape:export-filename="/home/gerardo/Documents/curso_python_2022/lista_ejemplos/html_bootstrap_jquery_addons/01_unificacion_3modulos/assets/gatunos_extra_logo01.png"
       inkscape:export-xdpi="96"
       inkscape:export-ydpi="96" />
    <path
       style="fill:#ffff00;stroke-width:2.24532"
       d="m 2326.0752,348.76225 v -70.72726 h 13.472 13.4719 v 57.2554 57.25541 h 15.717 15.7172 v -57.25541 -57.2554 h 12.3491 12.3493 v 70.72726 70.72725 h -41.5382 -41.5383 z"
       id="path45007-9"
       inkscape:export-filename="/home/gerardo/Documents/curso_python_2022/lista_ejemplos/html_bootstrap_jquery_addons/01_unificacion_3modulos/assets/gatunos_extra_logo01.png"
       inkscape:export-xdpi="96"
       inkscape:export-ydpi="96" />
    <path
       style="fill:#ffff00;stroke-width:2.24532"
       d="m 2498.9642,348.76225 v -70.72726 h 26.9436 26.9436 v 13.47183 13.47189 h -13.4717 -13.4719 v 57.25541 57.25538 h -13.4718 -13.4718 z"
       id="path45046-4"
       inkscape:export-filename="/home/gerardo/Documents/curso_python_2022/lista_ejemplos/html_bootstrap_jquery_addons/01_unificacion_3modulos/assets/gatunos_extra_logo01.png"
       inkscape:export-xdpi="96"
       inkscape:export-ydpi="96" />
    <path
       style="fill:#ffff00;stroke-width:2.24532"
       d="m 2555.0967,363.35677 v -56.13276 h 13.4721 13.4719 v 56.13276 56.13273 h -13.4719 -13.4721 z"
       id="path45085-8"
       inkscape:export-filename="/home/gerardo/Documents/curso_python_2022/lista_ejemplos/html_bootstrap_jquery_addons/01_unificacion_3modulos/assets/gatunos_extra_logo01.png"
       inkscape:export-xdpi="96"
       inkscape:export-ydpi="96" />
    <path
       style="fill:#ffff00;stroke-width:2.24532"
       d="m 2671.8528,348.76225 v -70.72726 h 26.9438 26.9436 v 13.47183 13.47189 h -13.4718 -13.4718 v 43.78354 43.78355 h 13.4718 13.4718 v 13.47185 13.47185 h -26.9436 -26.9438 z"
       id="path45124-1"
       inkscape:export-filename="/home/gerardo/Documents/curso_python_2022/lista_ejemplos/html_bootstrap_jquery_addons/01_unificacion_3modulos/assets/gatunos_extra_logo01.png"
       inkscape:export-xdpi="96"
       inkscape:export-ydpi="96" />
    <path
       style="fill:#ffff00;stroke-width:2.24532"
       d="m 2727.9854,348.76225 v -41.53824 h 13.4719 13.472 v 41.53824 41.53822 h -13.472 -13.4719 z"
       id="path45163-2"
       inkscape:export-filename="/home/gerardo/Documents/curso_python_2022/lista_ejemplos/html_bootstrap_jquery_addons/01_unificacion_3modulos/assets/gatunos_extra_logo01.png"
       inkscape:export-xdpi="96"
       inkscape:export-ydpi="96" />
    <path
       style="fill:#ffff00;stroke-width:2.24532"
       d="m 2844.7415,348.76225 v -70.72726 h 41.5385 41.5381 v 70.72726 70.72725 h -13.4718 -13.4721 v -29.18903 -29.18904 h -14.5942 -14.5944 v 29.18904 29.18903 h -13.4721 -13.472 z m 56.1327,-28.06639 v -15.71715 h -14.5942 -14.5944 v 15.71715 15.7172 h 14.5944 14.5942 z"
       id="path45202-9"
       inkscape:export-filename="/home/gerardo/Documents/curso_python_2022/lista_ejemplos/html_bootstrap_jquery_addons/01_unificacion_3modulos/assets/gatunos_extra_logo01.png"
       inkscape:export-xdpi="96"
       inkscape:export-ydpi="96" />
    <path
       style="fill:#ffff00;stroke-width:2.24532"
       d="m 3017.6304,348.76225 v -70.72726 h 41.5385 41.5381 v 13.47183 13.47189 h -29.1891 -29.1889 v 43.78354 43.78355 h 29.1889 29.1891 v 13.47185 13.47185 h -41.5381 -41.5385 z"
       id="path45241-3"
       inkscape:export-filename="/home/gerardo/Documents/curso_python_2022/lista_ejemplos/html_bootstrap_jquery_addons/01_unificacion_3modulos/assets/gatunos_extra_logo01.png"
       inkscape:export-xdpi="96"
       inkscape:export-ydpi="96" />
    <path
       style="fill:#ffff00;stroke-width:2.24532"
       d="M 3190.5194,406.01765 V 392.5458 h 13.4718 13.4718 v -43.78355 -43.78354 h -13.4718 -13.4718 v -13.47189 -13.47183 h 41.5383 41.5381 v 13.47183 13.47189 h -14.5946 -14.5943 v 43.78354 43.78355 h 14.5943 14.5946 v 13.47185 13.47185 h -41.5381 -41.5383 z"
       id="path45280-9"
       inkscape:export-filename="/home/gerardo/Documents/curso_python_2022/lista_ejemplos/html_bootstrap_jquery_addons/01_unificacion_3modulos/assets/gatunos_extra_logo01.png"
       inkscape:export-xdpi="96"
       inkscape:export-ydpi="96" />
    <path
       style="fill:#ffff00;stroke-width:2.24532"
       d="m 3363.4081,348.76225 v -70.72726 h 41.5385 41.5381 v 70.72726 70.72725 h -41.5381 -41.5385 z m 56.1328,0 v -43.78354 h -15.717 -15.7172 v 43.78354 43.78355 h 15.7172 15.717 z"
       id="path45319-0"
       inkscape:export-filename="/home/gerardo/Documents/curso_python_2022/lista_ejemplos/html_bootstrap_jquery_addons/01_unificacion_3modulos/assets/gatunos_extra_logo01.png"
       inkscape:export-xdpi="96"
       inkscape:export-ydpi="96" />
    <path
       style="fill:#ffff00;stroke-width:2.24532"
       d="m 3390.3519,233.12886 v -13.47184 h 28.0664 28.0664 v 13.47184 13.47185 h -28.0664 -28.0664 z"
       id="path45358-8"
       inkscape:export-filename="/home/gerardo/Documents/curso_python_2022/lista_ejemplos/html_bootstrap_jquery_addons/01_unificacion_3modulos/assets/gatunos_extra_logo01.png"
       inkscape:export-xdpi="96"
       inkscape:export-ydpi="96" />
    <path
       style="fill:#ffff00;stroke-width:2.24532"
       d="m 3534.0519,348.76225 v -70.72726 h 28.0662 28.0665 v 13.47183 13.47189 h -14.5947 -14.5946 v 57.25541 57.25538 h -13.4717 -13.4717 z"
       id="path45397-8"
       inkscape:export-filename="/home/gerardo/Documents/curso_python_2022/lista_ejemplos/html_bootstrap_jquery_addons/01_unificacion_3modulos/assets/gatunos_extra_logo01.png"
       inkscape:export-xdpi="96"
       inkscape:export-ydpi="96" />
    <path
       style="fill:#ffff00;stroke-width:2.24532"
       d="m 3592.4297,363.35677 v -56.13276 h 13.472 13.4717 v 56.13276 56.13273 h -13.4717 -13.472 z"
       id="path45436-5"
       inkscape:export-filename="/home/gerardo/Documents/curso_python_2022/lista_ejemplos/html_bootstrap_jquery_addons/01_unificacion_3modulos/assets/gatunos_extra_logo01.png"
       inkscape:export-xdpi="96"
       inkscape:export-ydpi="96" />
  </g>
</svg>
