<svg width="560" height="120" version="1.1" xmlns="http://www.w3.org/2000/svg"><g transform="matrix(.3553 0 0 .3553 -160.1 -62.69)"><path d="m717.2 501.7c-1.975-1.734-4.244-4.416-5.042-5.959l-1.451-2.806v-8.202l4.917-4.916 1.798-0.0318c0.9889-0.0181 2.667-0.6892 3.729-1.493l1.931-1.461 1.5-10.53 0.145-45.7-2.074-3.874h-1.786c-0.9823 0-4.175-0.7095-7.095-1.577l-5.309-1.577-4.768-4.768v-3.096l11.52-0.0825 9.014-4.424 0.2862-35.05 0.286-35.05-2.378-8.666-4.204-2.726-17.53-1.403v-2.4l8.859-8.986 25.35-11.46 1.929 0.6122c1.061 0.3367 3.279 1.748 4.928 3.136l2.999 2.524v1.342c0 0.7379 0.7082 2.05 1.574 2.915l1.574 1.574h20.66l8.682 2.516c4.775 1.384 10.86 3.617 13.51 4.964 2.656 1.346 8.41 5.145 12.79 8.442l7.955 5.994 5.499 7.934 2.867 9.527v13.52l-3.748 12.04-7.41 13.25-12.05 12.88-6.675 4.919c-3.671 2.705-8.928 6.034-11.68 7.397-2.754 1.363-10.19 4.194-16.52 6.292-6.335 2.097-12.53 4.181-13.77 4.631l-2.253 0.8174v43.2l4.835 4.835 2.84 0.602c1.562 0.3311 3.598 1.01 4.523 1.508l1.683 0.9058 4.367-0.0875c2.402-0.0481 6.668 0.2288 9.48 0.6155l5.113 0.7032 6.364-3.291 2.949 0.6477c1.622 0.3562 4.969 0.6477 7.438 0.6477s4.489 0.2108 4.489 0.4684-1.628 1.148-3.617 1.979c-3.649 1.525-11.5 6.45-16.77 10.53l-2.86 2.21-13.03 3.614-9.289 5.906-7.511 2.122c-4.131 1.167-9.804 2.782-12.61 3.589l-5.096 1.467h-8.266l-3.591-3.153zm44.23-107.5 8.865-4.454 16.15-12.96 9.672-11.68 5.727-12.02 8.1e-4 -4.306 8e-4 -4.306-1.466-2.835c-0.8064-1.56-2.864-4.012-4.573-5.45l-3.107-2.614-11.38-3.419-17.03-0.0528-11.07 2.502-6.459 3.928v60.02l1.752 1.021c0.964 0.5615 2.27 1.035 2.903 1.051 0.6325 0.0161 5.139-1.974 10.01-4.424zm73.46 109c-1.377-0.8903-3.734-3.213-5.238-5.162l-2.734-3.543-0.6162-3.284-0.616-3.284 2.695-5.679 8.851-4.247 2.667-3.647v-55.46l-5.258-0.5874c-2.892-0.3231-7.024-0.9439-9.182-1.38l-3.924-0.7921-0.3164-0.9979c-0.1731-0.5488 0.0342-1.551 0.4637-2.227l0.7802-1.229 7.742-1.481c4.258-0.8147 8.181-1.753 8.718-2.084l0.9761-0.6032v-81.1l-2.923-5.652-8.303-1.179c-4.567-0.6486-9.768-1.403-11.56-1.676l-3.255-0.4971v-0.7815c0-0.4298 1.014-1.705 2.253-2.834 2.452-2.233 15.09-10.32 16.13-10.32 0.3528 0 4.656-1.808 9.563-4.017l8.921-4.017 2.846 1.082c1.565 0.5952 3.636 1.797 4.601 2.67l1.754 1.588v5.464l2.253 0.6039c1.239 0.3322 6.769 0.61 12.29 0.6176l10.04 0.0141 7.186 1.991c3.952 1.095 9.749 3.125 12.88 4.51l5.696 2.519 6.627 4.931c3.645 2.712 8.295 6.654 10.33 8.76l3.706 3.828 4.444 10.02 0.448 7.564 0.4482 7.564-5.862 17.01-3.856 5.809c-2.121 3.195-6.115 8.281-8.876 11.3l-5.02 5.493-6.388-1.198-1.044 1.271c-0.5744 0.6992-1.2 2.394-1.391 3.766l-0.3464 2.494-9.856 6.44-24.86 9.103-2.172 0.0161c-1.195 8e-3 -2.848 0.4424-3.674 0.9645l-1.502 0.9492v42.98l2.388 2.542 2.387 2.542 10.4 2.159 9.938-0.0286c5.466-0.0161 12.56-0.0801 15.76-0.1433l5.817-0.1147 1.368 1.368-1.995 1.17c-1.097 0.6435-4.862 2.415-8.367 3.937l-6.372 2.767-2.969 2.498c-1.633 1.374-3.547 2.498-4.253 2.498h-1.284l-4.398 3.863c-2.419 2.125-6.327 4.845-8.686 6.046l-4.289 2.183-19.46 5.291-10.02 0.6809-2.504-1.619zm40.84-108 7.234-3.467 14.52-10.78 14.02-14.86 2.806-5.789 2.807-5.789 0.5071-4.713 0.5074-4.713-3.623-6.959-8.012-5.573-15.02-3.178-6.51 0.5808c-3.58 0.3195-9.214 1.271-12.52 2.114l-6.009 1.533-4.594 5.186 0.5876 56.57 2.749 3.309h1.658c0.9119 0 4.913-1.56 8.892-3.467zm345.2 77.65c-2.754-0.9817-7.302-2.948-10.11-4.369l-5.098-2.584-3.159-3.597c-1.737-1.979-4.161-5.5-5.385-7.826l-2.227-4.229-0.064-15.02 6.324-13.35 15.54-16.27-2.814-5.886-2.813-5.886 1.201-6.008-2.867-2.379 3.109-6.012-4.445-4.732 0.6352-4.633 0.6351-4.633 3.99-9.019 8.518-10.17 8.793-5.576 10.85-2.428 10.43 3.294 11.43 7.161 7.297 12.01 0.5124 3.821 0.5126 3.821-4.422 14.01-3.848 4.9c-2.116 2.695-5.502 7.378-7.524 10.41-2.022 3.03-5.026 6.706-6.675 8.17l-2.998 2.662 0.8527 1.455c0.4689 0.8 4.956 5.811 9.972 11.14l9.119 9.681 2.392-2.882 0.2013-2.842 0.2012-2.842-7.501-0.621-5.018-6.579v-4.174l2.869-2.869 8.33-2.59c4.582-1.424 10.58-3.102 13.34-3.727l5.008-1.138 12.02-0.3952c6.61-0.2174 14.38-0.6631 17.28-0.9905l5.258-0.5953-6e-4 1.324-4e-4 1.324-7.123 6.51c-3.917 3.58-8.536 7.917-10.26 9.637l-3.142 3.127-4.885 0.7092c-2.687 0.39-5.504 0.9464-6.259 1.236l-1.374 0.5273v9.726l-4.274 11.42 2.878 2.088c1.583 1.148 4.685 3.479 6.894 5.179l4.016 3.091-0.1852 1.416c-0.1026 0.7786-0.8092 3.102-1.571 5.164l-1.385 3.748-4.719 5.023-6.161-8e-3 -3.279-1.999c-1.804-1.099-3.884-1.999-4.622-1.999s-2.489-0.9014-3.889-2.003c-1.401-1.102-3.151-1.991-3.891-1.977s-3.823 1.608-6.852 3.542l-5.508 3.517-18.95 5.935-10.09-0.1465-5.008-1.785zm24.3-24.24 4.403-2.131 0.4904-1.278 0.4903-1.278-20.67-20.21-2.418-0.012-2.797 3.687c-1.538 2.028-4.262 5.04-6.052 6.694l-3.255 3.008v2.708l4.256 4.343c2.341 2.389 5.158 4.837 6.26 5.441l2.003 1.099 12.89 0.0608 4.403-2.131zm-5.358-61.55 7.732-6.597 3.862-6.334v-6.356l-4.967-5.903-6.016-2.492-6.923 1.299-2.716 3.221c-1.494 1.771-3.323 4.671-4.066 6.444l-1.351 3.223v7.758l1.418 4.712c1.409 4.681 3.169 7.624 4.56 7.624 0.3993 0 4.206-2.969 8.458-6.597zm177.6 58.68c-3.15-0.4041-8.921-1.762-12.83-3.017l-7.097-2.282-5.947-3.612c-3.271-1.987-8.252-5.415-11.07-7.618l-5.121-4.006-11.58-13.63-3.03-5.704c-1.666-3.137-3.951-8.633-5.077-12.21-1.126-3.58-3.003-11.68-4.172-18.01l-2.125-11.5 0.4449-4.528c0.6432-6.542 3.474-21.07 6.263-32.15 2.777-11.03 8.717-28.53 11.69-34.44 4.428-8.806 15.57-26.49 22.41-35.57 3.967-5.266 10.3-12.74 14.08-16.6 3.778-3.863 10.02-9.408 13.88-12.32l7.007-5.297 16.61-8.23 21.46-0.1348 9.514 3.839c5.233 2.112 10.42 3.914 11.52 4.006l2.003 0.1668 1.001-11.11 3.716-5.669 11.02 1.295 10.83 5.121 6.987 6.59v5.014c0 2.758-0.2818 6.424-0.6263 8.146l-0.6261 3.131-3.95 4.488-3.951 4.488 1.26 2.038h3.666l4.626 3.746-1.189 13.9c-1.369 16-2.396 23.64-4.536 33.75-0.8378 3.957-1.96 9.447-2.493 12.2-0.5337 2.754-1.712 8.321-2.619 12.37l-1.648 7.362-4.972 9.812h-1.736l-0.604-2.253c-0.3322-1.239-0.6099-4.634-0.6176-7.543l-0.02-5.29-2.706-6.478-0.7386-12.96-0.7384-12.96-8.583-25.12-8.626-16.82-7.197-7.565-5.549-1.393-4.386 1.675c-2.412 0.9214-7.238 3.557-10.72 5.857l-6.336 4.182-18.67 18.92-14.76 22.18-7.001 14.52c-7.518 15.6-12.55 28.49-16.66 42.64l-2.572 8.875-0.6202 7.541-0.6203 7.541-4.688 5.641 1.474 2.85c0.8106 1.567 2.758 3.904 4.327 5.191l2.853 2.342 2.683 4.698 2.682 4.698 9.499 9.727 9.705 4.683 22.34-1.05 9.698-3.142c5.334-1.728 12.29-4.288 15.46-5.688l5.759-2.547 3.559 0.9307 5.752-5.497 14.12-5.397 1.866-2.062c1.027-1.134 3.043-2.671 4.482-3.415l2.615-1.352 2.376-5.602 5.669-3.443c3.118-1.894 7.362-4.973 9.431-6.843l3.762-3.399 7.95-12.59 2.996-1.15 2.451 2.954-1.117 2.219c-0.6143 1.221-2.224 6.81-3.577 12.42l-2.46 10.2-9.668 17.65-13.39 13.4-5.747 2.972-3.862-0.345-5.572 11.02-21.51 13.4-18.03 5.986-7.834 1.071c-8.579 1.173-13.24 1.189-21.93 0.0739zm-944.6-17.42-3.868-1.454-5.967-5.667-3.933-7.648-1.125-9.495 4.778-5.554 12.55-1.48 3.41-3.41 0.5138-9.235 0.5136-9.235 6.009-1.023 0.3107-2.687 0.3109-2.687-2.815-1.792c-1.548-0.9857-3.146-2.253-3.55-2.817l-0.736-1.025-0.0402-57.64 1.252-0.3857c0.6885-0.2121 2.442-0.6448 3.896-0.9614l2.644-0.5758 0.6362-1.657 0.636-1.657-1.277-1.709c-0.7022-0.9401-2.794-3.691-4.648-6.113l-3.371-4.404 0.8096-16.02c0.4452-8.813 0.8356-20.38 0.8674-25.71l0.0584-9.686-4.837-5.145-11.19-4.171-4.345-4.058-4.266-9.916-0.33-11.84 4.691-4.994 17.27-6.312 31.05-5.793 36.05 0.0426 19.26 1.874 8.23 3.004c4.526 1.652 11.02 4.562 14.42 6.466 3.406 1.905 8.233 5.259 10.73 7.455l4.535 3.992 12.71 17.72 9.599 20.03 3.364 13.02 0.1812 15.02-2.594 11.02-7.831 16.02-5.754 6.686c-3.165 3.677-8.008 8.687-10.76 11.13-2.754 2.446-8.537 6.978-12.85 10.07l-7.844 5.626-12.19 5.896c-15.36 7.433-33.29 14.61-41.73 16.71-3.58 0.8894-8.18 2.046-10.22 2.57l-3.71 0.9524-3.095 3.095v25.98l4.594 4.594 8.165 1.306 2.508 3.022 10.27 0.0282 8.646 3.011 0.9278-0.5733c0.8734-0.5399 21.96-1.661 28.48-1.515 1.652 0.037 4.582 0.0739 6.51 0.0817 1.928 8e-3 4.119 0.2344 4.87 0.5034l1.365 0.4891-2.474 2.98h-1.564c-0.8603 0-3.622 0.9574-6.137 2.128-2.515 1.17-7.277 3.384-10.58 4.92-3.305 1.536-8.713 3.556-12.02 4.489-3.305 0.9329-7.489 2.324-9.298 3.092l-3.289 1.395h-7.498l-2.19 1.534c-3.274 2.293-9.677 4.366-20.29 6.569l-9.514 1.975-24.04 1.001-3.869-1.454zm74.84-111.5 8.878-3.508 8.668 1.3 3.211-4.901-1.206-4.806 3.952-3.578 4.301 2.302 3.049-2.531-0.5572-2.786-0.5571-2.786 5.003-5.717c6.249-7.142 11.29-14.69 14.78-22.13l2.694-5.75 6e-4 -9.014 6.1e-4 -9.014-5.329-11.37-8.197-8.892-11.68-5.241-15.37-2.286-9.758 1.184c-5.367 0.6512-10.51 1.401-11.43 1.666l-1.671 0.4824-6.938-6.092h-4.172l-1.037 1.937c-0.5701 1.065-1.037 3.018-1.037 4.339v2.402l-3.677 2.421c-2.022 1.332-4.56 3.622-5.639 5.089l-1.962 2.668-0.8241 15.86-0.8243 15.86-0.0926 57.2 1.252 1.578c0.6885 0.8682 1.928 1.781 2.754 2.029l1.502 0.4508 23.03-4.864 8.878-3.508zm94.28 109.2c-1.652-0.2192-5.405-1.076-8.339-1.903l-5.335-1.505-8.446-8.446-8.798-23-0.4178-13.48-0.418-13.48 1.189-7.374 1.19-7.374 2.412-7.091c1.326-3.9 4.028-10.03 6.004-13.63 4.303-7.828 11.15-16.93 17.68-23.5l4.775-4.802 16.6-7.966 10.21-1.21 10.39 5.656 10.64 10.22 4.995 9.915 2.252 10.61v25.44l-1.045 3.765-1.046 3.765-4.407 2.86-7.011 1.146c-7.029 1.149-41.56 9.725-49.07 12.19l-4.006 1.313-3.491 7.137 1.698 4.444c0.934 2.444 2.75 6.15 4.035 8.236l2.336 3.792 6.439 4.061 12.2-0.8725 6.42-2.831c3.531-1.557 11.83-6.065 18.43-10.02l12.01-7.187 2.729 1.047-0.5353 3.3c-0.2946 1.815-1.444 5.353-2.554 7.864l-2.019 4.564h-4.976l-3.282 3.282 0.159 4.118c0.0885 2.265 0.1187 4.606 0.0664 5.204l-0.0926 1.086-17.58 8.356-6.982 1.479c-6.915 1.465-9.171 1.587-14.99 0.8152zm9.573-73.9 16.47-3.703 8.342-3.632 2.174-4.063v-21.12l-3.229-8.071-4.731-1.187-9.042 4.377-7.483 6.988c-4.116 3.844-9.02 9.101-10.9 11.68-1.878 2.583-5.325 8.379-7.659 12.88l-4.244 8.184 1.419 2.296 1.209-0.464c0.6651-0.2552 8.619-2.13 17.68-4.167zm317.3 72.22c-1.993-0.7121-5.264-2.309-7.27-3.548l-3.647-2.254-2.506-4.276c-1.378-2.352-4.191-8.96-6.251-14.68l-3.745-10.41 0.1852-32.05 4.34-16.02 8.121-17.03 5.425-7.098c2.984-3.904 7.92-9.458 10.97-12.34l5.545-5.244 15.09-6.97 9.751-1.155 8.679 4.238 12.44 11.13 3.297 6.691 3.296 6.691 0.3244 17.55 0.3246 17.55-2.062 5.404-4.596 2.982-9.044 1.559c-4.974 0.8572-17.59 3.835-28.04 6.617l-19 5.058-9.013 4.42 0.338 12.36 4.087 9.24 7.029 2.937 14.59-0.0322 16.89-6.85 3.805 2.036 1.83-1.656c1.006-0.9107 2.079-2.637 2.385-3.835l0.5551-2.18 12.6-8.513h3.686l2.865-2.04c1.575-1.122 4.95-2.962 7.498-4.09l4.634-2.05 0.5234 0.5236 0.5237 0.5236-3.357 8.791-3.905 5.159c-2.148 2.838-4.804 6.923-5.904 9.078l-1.999 3.918-10.14 8.866-18.48 9.299-9.532 2.501-3.1-4.426-5.394 8e-3 -4.006 2.467c-2.203 1.357-4.682 2.462-5.508 2.455-0.8261-6e-3 -3.133-0.5953-5.125-1.307zm16.14-71.79c7.436-1.647 16.34-3.923 19.79-5.057l6.27-2.063 2.212-4.132 0.1348-11.62 0.1349-11.62-4.168-7.01-7.014 0.1988-12.31 8.362-4.759-1.194-3.294 3.294 0.6134 2.444 0.6136 2.444-3.971 5.245c-2.184 2.885-5.84 8.681-8.124 12.88l-4.153 7.635v4.494l2.253-0.6527c1.239-0.359 8.337-2 15.77-3.648zm622.2 72.47-2.233-0.4314-4.046-5.144v-3.49l-2.829-2.348-6.07 2.555c-3.338 1.405-9.574 3.712-13.86 5.126l-7.789 2.572-18.19 1.138-10.63-3.53-7.728-6.982-3.016-10.16v-9.56l4.853-13.37 7.497-10.88 11.19-8.076 24.04-11.71 17.64-4.4 4.206-3.406-2.212-19.47-3.616-7.397-16.02-0.564-16.02 7.789-7.511 5.573c-4.131 3.065-8.087 6.172-8.79 6.903-0.7034 0.7316-2.362 2.682-3.686 4.335l-2.407 3.005-1.205-1.185-1.204-1.185 2.703-6.827c1.486-3.755 4.138-9.24 5.892-12.19l3.189-5.362 5.883-4.934c3.235-2.714 7.757-6.032 10.05-7.375 2.291-1.343 6.178-3.157 8.639-4.033l4.474-1.592 14.41-0.081 10.71 4.905 7.339 6.444 4.859 10.38 2.278 10.82 0.9642 14.12c0.5303 7.764 0.9708 18.06 0.9791 22.88l0.02 8.763h0.9425c0.5182 0 1.221-0.4507 1.561-1.002l0.6189-1.002h4.138l-0.6501 3.255c-0.3574 1.79-1.991 6.122-3.63 9.627l-2.98 6.372v3.782h1.057c0.5808 0 3.623-1.316 6.76-2.925 8.406-4.311 14.69-7.09 16.03-7.09h1.186v0.9307c0 0.5119-1.834 3.692-4.075 7.066l-4.075 6.135-0.7718 4.883-0.772 4.883-3.245 4.953-10.6 6.015-5.44 1.596c-2.992 0.8777-5.696 1.534-6.009 1.459-0.3132-0.0751-1.574-0.3305-2.803-0.5678zm-35.82-22.8 7.694-1.472 5.664-2.583c3.115-1.421 7.356-3.75 9.424-5.177l3.76-2.594 3.997-6.468v-8.368l-4.917-4.916h-3.852l-3.01-4.506-3.833 3.443-13.56 4.188-3.692 3.264c-2.031 1.795-5.816 4.762-8.412 6.593l-4.72 3.33-2.44 3.612c-1.342 1.987-2.748 4.648-3.124 5.915l-0.684 2.302 3.217 4.909h10.79zm-507.6 18.1-3.675-3.675-5.008-9.882v-4.956l2.494-1.541 17.04-0.0792 0.603-20.03 0.6029-20.03 1.23-5.243 1.229-5.243-0.3303-12.96-0.3302-12.96-4.436-4.716 0.579-2.214 0.5792-2.214-3.367-1.292-4.372 2.3-10.02-3.83-0.3409-1.695-0.3411-1.695 4.447-4.733 17.27-6.344 11.14-0.2367 5.55 3.637 2.837 6.79v10.08l2.504-1e-3 11.46-12.81 8.707-4.215h4.609c2.535 0 5.357 0.2868 6.27 0.6373l1.661 0.6374 1.8 4.734h5.684l5.134 5.508 8.26 17.1-0.058 1.968c-0.032 1.082-0.8611 5.05-1.843 8.817l-1.786 6.849-8.832 3.946-5.322 5.085-11.96-5.366-1.088-2.387-1.087-2.387 0.8298-0.5129 0.8299-0.5129 3.582 3.958h5.316l3.28-2.504 1.541-4.507c0.8477-2.479 1.548-5.316 1.556-6.305l0.02-1.798-2.504-2.504c-1.377-1.377-2.504-2.855-2.504-3.285 0-0.4298-1.043-1.761-2.318-2.959l-2.318-2.178h-10.94l-4.496 3.149-2.843 5.686c-1.564 3.128-3.57 7.94-4.458 10.69-0.8883 2.754-2.766 11.76-4.174 20.01l-2.559 15-0.2012 15.52 3.432 5.238 8.608 3.808 1.09 4.167 4.108-2.199 3.929 2.453 4.976-2.664 2.831 0.7067c1.557 0.3887 3.507 1.287 4.334 1.996 0.8263 0.7093 2.751 1.586 4.277 1.949l2.775 0.6595 4.18-2.237 1.917 1.917-3.432 3.432-4.06-1.062-2.578 1.387c-3.917 2.108-12.1 4.527-15.31 4.527h-2.866l-8.433 4.365-11.02 0.7417c-6.059 0.4079-15.33 1.064-20.61 1.459l-9.595 0.717-3.675-3.675zm581.1 0.758c-1.43-1.575-3.346-3.978-4.256-5.34l-1.656-2.476v-5.564l1.963-1.964 1.964-1.964 11.09-3.225 0.571-2.275 0.5709-2.275-0.3192-35.96-0.3193-35.96-4.114-7.004-6.902-4.651v-2.366l9.514-3.229c5.233-1.776 10.42-3.241 11.52-3.255l2.003-0.0254 5.19 6.51 1.281 4.006c0.7048 2.203 1.663 4.419 2.129 4.924l0.8475 0.9182 14.59-15.15 8.513-2.285 7.555 2.034 8.499 6.25 2.391 4.159c1.315 2.287 2.687 5.584 3.05 7.325l0.6591 3.166-1.129 6.348c-0.621 3.491-2.266 10.11-3.656 14.71l-2.527 8.361-11.85 12.14-0.6152-0.6152-0.615-0.6152 3.427-13.98-1.139-20.52-2.022-2.022-11.12 3.506-3.084 4.193c-1.696 2.306-3.707 5.643-4.467 7.417l-1.383 3.224-5.006 32.98v12.24l1.465 2.833c0.8058 1.558 2.045 3.05 2.754 3.315 0.709 0.2648 6.697 0.1594 13.31-0.2343l12.02-0.7157 1.81 1.62-2.746 3.6c-1.51 1.98-4.206 4.557-5.991 5.727l-3.245 2.127-4.33 6.606-5.239 3.432-9.66 0.7247c-5.313 0.3986-13.94 1.041-19.17 1.428l-9.514 0.7027-2.6-2.863zm85.54 1.013c-1.201-1.03-3.342-3.626-4.757-5.768l-2.574-3.895v-3.88l5.612-5.612 8.294-1.401 1.934-2.347 0.2134-35.05 0.2135-35.05-2-9.586-3.527-3.897-10.24-3.814-0.5462-2.732 25.4-4.532 2.598 1.652c1.429 0.9086 3.596 2.83 4.815 4.269l2.218 2.617 0.6482 3.255 0.648 3.255 2.281-0.016 9.412-11.8 11.01-5.387 3.308 0.7127c1.82 0.392 4.66 1.386 6.313 2.209 3.856 1.92 8.325 6.075 10.02 9.315l1.327 2.539-1.43 12.98-1.429 12.98-2.966 4.507c-1.631 2.479-3.737 5.971-4.68 7.762l-1.713 3.255h-3.243l-0.194-16.52-3.406-8.474-6.544-4.044h-5.026l-2.003 4.757c-1.102 2.616-2.709 7.011-3.571 9.765-1.701 5.431-5.19 26.72-6.26 38.19l-0.6661 7.14 1.17 3.546c0.6434 1.95 1.711 3.987 2.371 4.527l1.201 0.981 5.508-0.9856c3.03-0.5421 8.212-1.107 11.52-1.256 3.305-0.1485 6.752-0.5918 7.66-0.9851l1.652-0.7149 0.7088 1.147 0.7092 1.147-13.17 12.66-1.564 3.91-1.565 3.91-6.412 3.788-9.534 0.7075c-5.244 0.3891-13.59 1.033-18.55 1.43l-9.013 0.7223-2.183-1.873zm113.9 0.0849-5.508-1.513-10.64-7.287-7.852-9.182-5.836-12.02-2.206-10.61 0.04-18.43 0.9738-6.733 0.9739-6.733 2.15-6.286c2.831-8.274 7.422-17.39 11.12-22.08l2.977-3.777 6.281-4.482c3.455-2.465 8.744-5.61 11.75-6.988l5.473-2.506 14.85-1.21 13.98 3.288 8.368 4.904 6.193 7.819 3.476 7.371c1.912 4.054 4.194 10.07 5.071 13.38l1.595 6.009 0.5599 9.514 0.5596 9.514-1.62 8.513c-0.8914 4.682-2.083 10.16-2.647 12.18l-1.027 3.671-6.963 4.108v1.55c0 0.8523 0.5559 2.44 1.235 3.528l1.235 1.978-1.986 3.703c-1.092 2.037-4.087 6.004-6.654 8.817l-4.668 5.114-10.69 5.904-25.04 0.4857-5.508-1.513zm23.99-20.74 5.523-1.252 7.664-7.636 1.946-4.541 1.947-4.541 2.208-14.23-0.6659-14.07c-0.3663-7.739-0.6476-16.17-0.6249-18.72l0.04-4.652-2.705-1.772c-1.488-0.9749-5.104-3.726-8.035-6.114l-5.33-4.341h-6.57l-10.28 3.054-6.452 5.429-7.618 11.79-0.6109 3.636c-0.3361 2-0.8211 4.404-1.078 5.344-0.2568 0.9395-2.246 3.861-4.42 6.491l-3.952 4.783v3.096l3.697 3.165 0.6879 5.854 0.6881 5.854 8.659 18.28 2.935 2.09c3.464 2.467 8.516 4.045 13.35 4.171 1.912 0.0497 5.961-0.473 8.999-1.162zm89.4 19.7-5.18-2.582-2.575-3.06c-1.416-1.683-3.414-4.705-4.439-6.714l-1.864-3.654-1.093-5.911-1.092-5.911-0.07-26.61-0.071-26.61-1.566-4.006h-14.46l-7.874-8.436v-5.112l-1.16-1.857-1.159-1.857 0.5458-1.423 0.546-1.423 11.82-6.194 11.56-2.586 2.39-4.163-0.2568-20.36-0.257-20.36-2.129-3.978 2.387-2.876h4l11.72 7.12 4.216 5.921 1.166 30.34 3.72 3.72 2.739-0.6581c1.506-0.362 4.316-1.439 6.244-2.393l3.505-1.735 15.74-1.445 7.299-3.11 10.49-0.2041 0.4906 1.28 0.4909 1.28-1.732 1.412c-0.9525 0.7764-3.846 3.13-6.429 5.23-2.584 2.1-8.52 7.233-13.19 11.41l-8.495 7.588-8.841 3.343c-4.862 1.839-9.516 3.96-10.34 4.714l-1.502 1.371-0.3226 27.76-0.3228 27.76 0.6492 5.291 0.649 5.291 4.648 5.404 6.157-2.965 11.4-11.15c6.27-6.134 12.38-11.68 13.57-12.31l2.171-1.162 1.71 1.057-0.8096 4.275c-0.4454 2.351-1.529 5.984-2.409 8.072l-1.599 3.797-6.216 5.554 2.318 4.332-1.573 3.779-1.573 3.778-4.209 4.381c-2.315 2.41-6.213 5.677-8.662 7.261l-4.453 2.88h-11.23l-5.181-2.582z"/></g></svg>
